<svg width="103" height="103" viewBox="0 0 103 103" fill="none" xmlns="http://www.w3.org/2000/svg">
<path opacity="0.15" d="M20.1637 31.4725H82.4435C84.4293 31.4725 86.031 33.0836 86.031 35.06V70.9911C86.031 72.9768 84.4199 74.5786 82.4435 74.5786H20.1637C18.1779 74.5786 16.5762 72.9675 16.5762 70.9911V35.06C16.5762 33.0836 18.1873 31.4725 20.1637 31.4725Z" fill="#1F1D20"/>
<path d="M51.3088 97.9674C77.1612 97.9674 98.1148 77.0139 98.1148 51.1615C98.1148 25.3091 77.1612 4.35559 51.3088 4.35559C25.4565 4.35559 4.50293 25.3091 4.50293 51.1615C4.50293 77.0139 25.4565 97.9674 51.3088 97.9674Z" fill="url(#paint0_linear)"/>
<path fill-rule="evenodd" clip-rule="evenodd" d="M51.3086 1.16156C23.6953 1.16156 1.30859 23.5482 1.30859 51.1616C1.30859 78.7749 23.6953 101.162 51.3086 101.162C78.9219 101.162 101.309 78.7749 101.309 51.1616C101.309 23.5482 78.9219 1.16156 51.3086 1.16156ZM51.3086 96.9184C26.037 96.9184 5.55176 76.4332 5.55176 51.1616C5.55176 25.8899 26.037 5.40472 51.3086 5.40472C76.5802 5.40472 97.0654 25.8899 97.0654 51.1616C97.0654 76.4332 76.5802 96.9184 51.3086 96.9184Z" fill="#D9D9D9"/>
<path fill-rule="evenodd" clip-rule="evenodd" d="M5.41078 51.1616C5.41078 76.5082 25.9616 97.0589 51.3081 97.0589C76.6547 97.0589 97.2055 76.5082 97.2055 51.1616C97.2055 25.815 76.6547 5.26424 51.3081 5.26424C25.9616 5.26424 5.41078 25.815 5.41078 51.1616ZM51.3081 1.51752C23.8915 1.51752 1.66406 23.7449 1.66406 51.1616C1.66406 78.5782 23.8915 100.806 51.3081 100.806C78.7248 100.806 100.952 78.5782 100.952 51.1616C100.952 23.7449 78.7248 1.51752 51.3081 1.51752Z" fill="#F2F1F0"/>
<path fill-rule="evenodd" clip-rule="evenodd" d="M8.22133 51.1615C8.22133 74.9626 27.5076 94.2488 51.3086 94.2488C75.1097 94.2488 94.3959 74.9626 94.3959 51.1615C94.3959 27.3605 75.1097 8.07424 51.3086 8.07424C27.5076 8.07424 8.22133 27.3605 8.22133 51.1615ZM51.3086 4.32751C25.4469 4.32751 4.47461 25.2998 4.47461 51.1615C4.47461 77.0233 25.4469 97.9956 51.3086 97.9956C77.1704 97.9956 98.1426 77.0233 98.1426 51.1615C98.1426 25.2998 77.1797 4.32751 51.3086 4.32751Z" fill="#0078D4"/>
<path d="M20.1637 29.5992H82.4435C84.4293 29.5992 86.031 31.2103 86.031 33.1867V69.1177C86.031 71.1035 84.4199 72.7052 82.4435 72.7052H20.1637C18.1779 72.7052 16.5762 71.0941 16.5762 69.1177V33.1867C16.5762 31.2103 18.1873 29.5992 20.1637 29.5992Z" fill="url(#paint1_linear)" stroke="#A3A3A3" stroke-width="1.6164"/>
<path opacity="0.15" d="M58.9893 23.5482V32.3811C58.9893 33.6082 59.9821 34.6011 61.2092 34.6011H70.1451V38.9941L74.4538 34.6104H76.6457C77.8727 34.6104 78.8656 33.6176 78.8656 32.3905V23.5482C78.8656 22.3212 77.8727 21.3283 76.6457 21.3283H61.2186C59.9821 21.3283 58.9893 22.3212 58.9893 23.5482Z" fill="#1F1D20"/>
<path opacity="0.15" d="M60.7872 36.3714H22.1773C20.9034 36.3714 19.873 37.4017 19.873 38.6756V63.6569C19.873 64.9308 20.9034 65.9611 22.1773 65.9611H60.7872C62.0611 65.9611 63.0915 64.9308 63.0915 63.6569V38.6756C63.0915 37.4017 62.0611 36.3714 60.7872 36.3714Z" fill="#1F1D20"/>
<path opacity="0.2" d="M56.1413 38.8161H23.498C21.5029 38.8161 19.873 40.4366 19.873 42.4411V62.5047C19.873 64.4999 21.4935 66.1297 23.498 66.1297H56.1319C58.1271 66.1297 59.7569 64.5092 59.7569 62.5047V42.4317C59.7569 40.4272 58.1364 38.8161 56.1413 38.8161Z" fill="#1F1D21"/>
<path d="M58.9512 35.8468H22.9546C21.765 35.8468 20.8096 36.8116 20.8096 37.9918V61.2777C20.8096 62.4673 21.7744 63.4227 22.9546 63.4227H58.9418C60.1314 63.4227 61.0868 62.4579 61.0868 61.2777V38.0012C61.0962 36.8116 60.1314 35.8468 58.9512 35.8468Z" fill="url(#paint2_linear)"/>
<path d="M58.9893 22.4898V31.3227C58.9893 32.5497 59.9821 33.5426 61.2092 33.5426H70.1451V37.9356L74.4538 33.552H76.6457C77.8727 33.552 78.8656 32.5591 78.8656 31.332V22.4898C78.8656 21.2627 77.8727 20.2698 76.6457 20.2698H61.2186C59.9821 20.2605 58.9893 21.2627 58.9893 22.4898Z" fill="url(#paint3_linear)"/>
<path d="M51.1581 52.4729C50.9146 54.0278 51.6827 55.5078 52.9753 56.2477C52.9753 56.2477 52.5351 54.824 52.6006 53.063C52.6006 51.3395 52.7037 50.1125 52.7037 50.1125C51.8325 50.6558 51.3361 51.377 51.1581 52.4729Z" fill="url(#paint4_linear)"/>
<path d="M55.5886 57.9619L54.5958 57.709C53.7996 57.3811 53.3406 56.4444 53.3313 55.9199C53.3313 55.9199 53.1064 54.7959 53.1064 52.9319C53.1064 51.0679 53.2188 49.9813 53.2188 49.9813C53.3312 48.492 54.1555 47.7427 54.6988 47.5553L55.4107 47.3212C55.9446 47.1432 56.5066 47.5272 56.5253 48.0986C56.5253 48.0986 56.6658 50.9555 56.7033 52.5197C56.7408 54.084 56.6565 57.1563 56.6565 57.1563C56.6658 57.709 56.1319 58.1117 55.5886 57.9619Z" fill="url(#paint5_linear)"/>
<path d="M50.8315 74.7191C51.6371 67.4879 57.8379 61.8116 65.3407 61.8116C72.778 61.8116 78.9226 67.3755 79.8499 74.5411C79.9717 75.0376 79.9717 75.5902 79.9717 76.0867C79.7843 78.1286 78.3606 80.105 75.691 81.6505C69.9867 84.9289 60.6854 84.9289 55.0466 81.6505C52.3771 80.105 51.0189 78.1286 50.8315 76.0867C50.7098 75.6464 50.766 75.15 50.8315 74.7191Z" fill="white"/>
<path d="M65.3213 61.7367C59.9261 61.7367 55.5518 57.3905 55.5518 52.0233C55.5518 46.6561 59.9261 42.3099 65.3213 42.3099C70.7166 42.3099 75.0909 46.6561 75.0909 52.0233C75.0909 57.3811 70.7166 61.7367 65.3213 61.7367Z" fill="white"/>
<path d="M57.5942 44.5861C59.6736 42.5909 62.4275 41.5138 65.3593 41.57C68.2068 41.6168 70.8857 42.7595 72.8808 44.764C74.8853 46.7779 75.9906 49.4474 75.9906 52.2669C75.9906 52.8382 75.9438 53.419 75.8501 53.981C75.8126 54.2058 75.6159 54.3744 75.3818 54.3744H74.6137C74.5669 54.3744 74.5294 54.3557 74.5013 54.3182C74.4826 54.2995 74.4638 54.262 74.4732 54.2058C74.6043 53.5688 74.6793 52.9132 74.6793 52.2575C74.6793 49.7285 73.677 47.3493 71.8505 45.5696C70.0521 43.8086 67.6729 42.8439 65.1532 42.8439C65.1158 42.8439 65.0877 42.8439 65.0502 42.8439C59.8797 42.9001 55.6084 47.1057 55.5803 52.2107C55.5803 52.8757 55.6272 53.7 55.7677 54.3463C55.7771 54.3931 55.7771 54.365 55.749 54.4025C55.7302 54.4212 55.7583 54.3557 55.7021 54.3557H54.934C54.6999 54.3557 54.5032 54.187 54.4657 53.9622C54.372 53.3628 54.3252 52.7539 54.3252 52.1357C54.3533 49.2695 55.5148 46.5812 57.5942 44.5861Z" fill="url(#paint6_linear)"/>
<path d="M78.6972 50.993C78.9314 52.5479 78.1539 54.0185 76.8613 54.7491L77.0393 48.4171C77.901 48.9791 78.5286 49.8971 78.6972 50.993Z" fill="url(#paint7_linear)"/>
<path d="M74.1535 56.7723L75.6147 56.3789C76.0924 56.1728 76.4015 55.7045 76.4203 55.1893L76.5795 47.8551C76.5889 47.2837 76.2423 46.7685 75.699 46.5718L74.4064 46.1316C73.8725 45.9536 73.4135 46.0754 73.17 46.6561C73.17 46.6561 72.6361 48.3422 72.5518 51.4801C72.6642 55.1331 73.0857 55.9574 73.0857 55.9574C73.376 56.6131 73.6102 56.9222 74.1535 56.7723Z" fill="url(#paint8_linear)"/>
<path d="M63.1767 62.3268L64.6941 62.5984C65.3123 62.5984 65.8088 62.102 65.8088 61.4838C65.8088 60.8656 65.3123 60.3691 64.6941 60.3691L63.1767 60.6408C62.7646 60.7157 62.4648 61.0717 62.4648 61.4932C62.4648 61.8959 62.7646 62.2519 63.1767 62.3268Z" fill="url(#paint9_linear)"/>
<path d="M62.5588 61.6431C62.9334 61.6431 63.2706 61.6337 63.5329 61.615C63.5704 61.615 63.5985 61.615 63.6172 61.615V61.0249C63.5985 61.0249 63.561 61.0249 63.5048 61.0342C62.0904 61.1185 58.606 61.1279 56.9106 59.2826C55.4681 57.887 54.8873 54.9364 54.878 54.899L54.2598 54.5243C54.2691 54.5711 54.2129 54.4494 54.5595 55.7326C55.0278 57.4748 55.6742 58.8049 56.4797 59.6854C57.9971 61.3433 60.7791 61.6431 62.5588 61.6431Z" fill="url(#paint10_linear)"/>
<g opacity="0.2">
<path opacity="0.4" d="M63.6261 58.5145C62.2211 58.5145 61.069 57.4654 60.9004 56.1166H66.3425C66.1833 57.4654 65.0312 58.5145 63.6261 58.5145Z" fill="#1F1D21"/>
</g>
<path d="M72.2538 27.3137L67.2051 30.4609V24.1664L72.2538 27.3137Z" fill="white"/>
<path d="M46.5214 42.5628C46.5214 42.0289 46.0906 41.5887 45.5473 41.5887H26.2329C25.699 41.5887 25.2588 42.0196 25.2588 42.5628C25.2588 43.0967 25.6897 43.537 26.2329 43.537H45.5473C46.0906 43.537 46.5214 43.0967 46.5214 42.5628Z" fill="#C3F1FF"/>
<path d="M40.6855 42.5628C40.6855 43.6306 41.5567 44.5018 42.6245 44.5018C43.6923 44.5018 44.5634 43.6306 44.5634 42.5628C44.5634 41.495 43.6923 40.6239 42.6245 40.6239C41.5567 40.6239 40.6855 41.4856 40.6855 42.5628Z" fill="white"/>
<path d="M46.5214 49.3444C46.5214 48.8105 46.0906 48.3703 45.5473 48.3703H26.2329C25.699 48.3703 25.2588 48.8012 25.2588 49.3444C25.2588 49.8784 25.6897 50.3186 26.2329 50.3186H45.5473C46.0906 50.3186 46.5214 49.8784 46.5214 49.3444Z" fill="#9CEBFF"/>
<path d="M33.9053 49.335C33.9053 50.4029 34.7764 51.274 35.8442 51.274C36.912 51.274 37.7831 50.4029 37.7831 49.335C37.7831 48.2672 36.912 47.3961 35.8442 47.3961C34.7764 47.4055 33.9053 48.2672 33.9053 49.335Z" fill="white"/>
<path d="M46.5214 56.1072C46.5214 55.5733 46.0906 55.1331 45.5473 55.1331H26.2329C25.699 55.1331 25.2588 55.5639 25.2588 56.1072C25.2588 56.6411 25.6897 57.0814 26.2329 57.0814H45.5473C46.0906 57.0814 46.5214 56.6411 46.5214 56.1072Z" fill="#53B1E0"/>
<path d="M27.1982 56.0979C27.1982 57.1657 28.0694 58.0368 29.1372 58.0368C30.205 58.0368 31.0761 57.1657 31.0761 56.0979C31.0761 55.03 30.205 54.1589 29.1372 54.1589C28.0694 54.1683 27.1982 55.03 27.1982 56.0979Z" fill="white"/>
<defs>
<linearGradient id="paint0_linear" x1="53.0794" y1="-13.6305" x2="49.0966" y2="132.138" gradientUnits="userSpaceOnUse">
<stop stop-color="#00ABDE"/>
<stop offset="1" stop-color="#007ED8"/>
</linearGradient>
<linearGradient id="paint1_linear" x1="51.3039" y1="29.599" x2="51.3039" y2="72.705" gradientUnits="userSpaceOnUse">
<stop stop-color="#555559"/>
<stop offset="1" stop-color="#2E2E33"/>
</linearGradient>
<linearGradient id="paint2_linear" x1="20.8094" y1="49.6411" x2="61.0953" y2="49.6411" gradientUnits="userSpaceOnUse">
<stop stop-color="#008BF1"/>
<stop offset="0.22" stop-color="#0086EC"/>
<stop offset="0.49" stop-color="#0078DD"/>
<stop offset="0.79" stop-color="#0061C4"/>
<stop offset="1" stop-color="#004DAE"/>
</linearGradient>
<linearGradient id="paint3_linear" x1="67.2194" y1="14.5833" x2="72.7121" y2="54.2093" gradientUnits="userSpaceOnUse">
<stop stop-color="#007ED8"/>
<stop offset="0.7065" stop-color="#002D4C"/>
</linearGradient>
<linearGradient id="paint4_linear" x1="63.3861" y1="21.436" x2="48.3178" y2="65.1357" gradientUnits="userSpaceOnUse">
<stop stop-color="#007ED8"/>
<stop offset="0.7065" stop-color="#002D4C"/>
</linearGradient>
<linearGradient id="paint5_linear" x1="66.2663" y1="20.5936" x2="50.5978" y2="66.034" gradientUnits="userSpaceOnUse">
<stop stop-color="#007ED8"/>
<stop offset="0.7065" stop-color="#002D4C"/>
</linearGradient>
<linearGradient id="paint6_linear" x1="69.8853" y1="26.0421" x2="61.5299" y2="72.3447" gradientUnits="userSpaceOnUse">
<stop stop-color="#007ED8"/>
<stop offset="0.7065" stop-color="#002D4C"/>
</linearGradient>
<linearGradient id="paint7_linear" x1="78.8226" y1="20.862" x2="77.2829" y2="68.941" gradientUnits="userSpaceOnUse">
<stop stop-color="#007ED8"/>
<stop offset="0.7065" stop-color="#002D4C"/>
</linearGradient>
<linearGradient id="paint8_linear" x1="75.5323" y1="20.6558" x2="73.9882" y2="68.8765" gradientUnits="userSpaceOnUse">
<stop stop-color="#007ED8"/>
<stop offset="0.7065" stop-color="#002D4C"/>
</linearGradient>
<linearGradient id="paint9_linear" x1="71.5488" y1="20.4239" x2="63.0068" y2="67.7628" gradientUnits="userSpaceOnUse">
<stop stop-color="#007ED8"/>
<stop offset="0.7065" stop-color="#002D4C"/>
</linearGradient>
<linearGradient id="paint10_linear" x1="64.5586" y1="26.923" x2="57.5552" y2="65.734" gradientUnits="userSpaceOnUse">
<stop stop-color="#007ED8"/>
<stop offset="0.7065" stop-color="#002D4C"/>
</linearGradient>
</defs>
</svg>
