<svg width="16" height="16" viewBox="0 0 16 16" fill="none" xmlns="http://www.w3.org/2000/svg">
<g clip-path="url(#clip0)">
<path d="M12.4349 0.523926H4.63995C4.44885 0.523926 4.29395 0.678835 4.29395 0.869926V10.5699C4.29395 10.761 4.44885 10.9159 4.63995 10.9159H12.4349C12.626 10.9159 12.7809 10.761 12.7809 10.5699V0.869926C12.7809 0.678835 12.626 0.523926 12.4349 0.523926Z" fill="url(#paint0_linear)"/>
<path d="M11.2248 4.27789V3.54989C11.2249 3.53851 11.2228 3.52722 11.2185 3.51667C11.2142 3.50612 11.2079 3.49652 11.1999 3.48843C11.1919 3.48034 11.1824 3.47392 11.1719 3.46953C11.1614 3.46515 11.1501 3.46289 11.1388 3.46289H5.99176C5.96903 3.46315 5.94731 3.47229 5.93124 3.48837C5.91517 3.50444 5.90602 3.52616 5.90576 3.54889V3.54889V4.27489C5.90576 4.29753 5.91468 4.31925 5.9306 4.33535C5.94651 4.35145 5.96813 4.36063 5.99076 4.36089H11.1348C11.1461 4.36102 11.1574 4.3589 11.168 4.35463C11.1785 4.35037 11.1881 4.34406 11.1962 4.33606C11.2043 4.32806 11.2107 4.31853 11.2151 4.30803C11.2195 4.29753 11.2218 4.28627 11.2218 4.27489V4.27489L11.2248 4.27789ZM11.2248 6.08289V5.35689C11.2248 5.33382 11.2156 5.31169 11.1993 5.29537C11.183 5.27906 11.1608 5.26989 11.1378 5.26989H5.99176C5.96903 5.27015 5.94731 5.27929 5.93124 5.29537C5.91517 5.31144 5.90602 5.33316 5.90576 5.35589V5.35589V6.08189C5.90576 6.10453 5.91468 6.12625 5.9306 6.14235C5.94651 6.15845 5.96813 6.16763 5.99076 6.16789H11.1348C11.1461 6.16802 11.1574 6.1659 11.168 6.16163C11.1785 6.15737 11.1881 6.15106 11.1962 6.14306C11.2043 6.13506 11.2107 6.12553 11.2151 6.11503C11.2195 6.10453 11.2218 6.09327 11.2218 6.08189L11.2248 6.08289ZM11.2248 7.88989V7.16389C11.2248 7.14082 11.2156 7.11869 11.1993 7.10237C11.183 7.08606 11.1608 7.07689 11.1378 7.07689H5.99176C5.96886 7.07715 5.94699 7.08644 5.93089 7.10272C5.91479 7.11901 5.90576 7.14099 5.90576 7.16389V7.88989C5.90576 7.91262 5.91465 7.93445 5.93053 7.95071C5.94642 7.96697 5.96804 7.97637 5.99076 7.97689H11.1348C11.1578 7.97689 11.18 7.96772 11.1963 7.95141C11.2126 7.93509 11.2218 7.91296 11.2218 7.88989H11.2248Z" fill="#42E8CA"/>
<path d="M15.6542 5.08398H7.85918C7.66809 5.08398 7.51318 5.23889 7.51318 5.42998V15.13C7.51318 15.3211 7.66809 15.476 7.85918 15.476H15.6542C15.8453 15.476 16.0002 15.3211 16.0002 15.13V5.42998C16.0002 5.23889 15.8453 5.08398 15.6542 5.08398Z" fill="url(#paint1_linear)"/>
<path d="M10.9264 9.6241V8.3921C10.9264 8.1671 11.0084 8.0331 11.1644 7.9841C11.211 7.96876 11.2514 7.93895 11.2798 7.89902C11.3082 7.85908 11.3232 7.81111 11.3224 7.7621V7.7621C11.3225 7.73137 11.3166 7.70092 11.305 7.67248C11.2933 7.64403 11.2762 7.61816 11.2546 7.59634C11.2329 7.57452 11.2072 7.55717 11.1789 7.54529C11.1505 7.53341 11.1201 7.52723 11.0894 7.5271H11.0714C10.8826 7.53043 10.6996 7.59305 10.5484 7.7061C10.4645 7.80086 10.4013 7.91202 10.3628 8.03254C10.3242 8.15305 10.3111 8.28027 10.3244 8.4061V9.6761C10.3244 9.9201 10.2497 10.0681 10.1004 10.1201C10.0617 10.1314 10.0276 10.1546 10.0028 10.1863C9.97808 10.2181 9.96393 10.2569 9.9624 10.2971V10.6131C9.96397 10.6538 9.9785 10.6929 10.0039 10.7247C10.0292 10.7566 10.0641 10.7795 10.1034 10.7901C10.2527 10.8421 10.3271 10.9901 10.3264 11.2341V12.4581C10.3124 12.5849 10.3251 12.7132 10.3637 12.8348C10.4023 12.9564 10.4659 13.0686 10.5504 13.1641C10.7011 13.2782 10.8844 13.3409 11.0734 13.3431C11.1041 13.3456 11.135 13.3419 11.1642 13.3323C11.1935 13.3228 11.2206 13.3075 11.244 13.2874C11.2673 13.2674 11.2864 13.2429 11.3002 13.2153C11.314 13.1878 11.3223 13.1578 11.3244 13.1271C11.3249 13.1211 11.3249 13.1151 11.3244 13.1091V13.1091C11.3248 13.0602 11.3098 13.0123 11.2814 12.9725C11.253 12.9326 11.2128 12.9027 11.1664 12.8871C11.0104 12.8381 10.9284 12.7041 10.9284 12.4791V11.2861C10.9284 10.8861 10.8284 10.6251 10.5664 10.5221C10.5664 10.5221 10.4614 10.5001 10.4604 10.4551C10.4594 10.4101 10.5924 10.3661 10.5924 10.3661C10.8524 10.2631 10.9264 10.0201 10.9264 9.6241Z" fill="#258277"/>
<path d="M12.8623 9.6241V8.3921C12.8623 8.1671 12.7803 8.0331 12.6243 7.9841C12.5779 7.96849 12.5377 7.93861 12.5093 7.89874C12.4809 7.85887 12.4659 7.81104 12.4663 7.7621V7.7621C12.4663 7.70012 12.4908 7.64065 12.5344 7.59663C12.5781 7.55262 12.6373 7.52763 12.6993 7.5271H12.7173C12.9065 7.53022 13.0898 7.59285 13.2413 7.7061C13.3256 7.8018 13.389 7.91399 13.4276 8.03553C13.4662 8.15708 13.479 8.28532 13.4653 8.4121V9.6761C13.4653 9.9201 13.5397 10.0681 13.6883 10.1201C13.7274 10.1309 13.7621 10.1539 13.7873 10.1857C13.8124 10.2175 13.8268 10.2566 13.8283 10.2971V10.6131C13.827 10.6537 13.8126 10.6928 13.7874 10.7246C13.7622 10.7565 13.7275 10.7794 13.6883 10.7901C13.539 10.8421 13.4647 10.9901 13.4653 11.2341V12.4581C13.4791 12.5849 13.4662 12.7131 13.4277 12.8347C13.3891 12.9562 13.3256 13.0684 13.2413 13.1641C13.0903 13.2782 12.9066 13.3409 12.7173 13.3431C12.6867 13.3454 12.6559 13.3417 12.6268 13.332C12.5976 13.3224 12.5706 13.3071 12.5474 13.2871C12.5242 13.267 12.5051 13.2425 12.4914 13.2151C12.4777 13.1876 12.4695 13.1577 12.4673 13.1271C12.4668 13.1211 12.4668 13.1151 12.4673 13.1091V13.1091C12.4669 13.0602 12.4819 13.0123 12.5103 12.9725C12.5387 12.9326 12.5789 12.9027 12.6253 12.8871C12.7813 12.8381 12.8633 12.7041 12.8633 12.4791V11.2861C12.8633 10.8861 12.9633 10.6251 13.2253 10.5221C13.2253 10.5221 13.3303 10.5001 13.3313 10.4551C13.3323 10.4101 13.1993 10.3661 13.1993 10.3661C12.9393 10.2631 12.8623 10.0201 12.8623 9.6241Z" fill="#258277"/>
<path d="M7.1 13.342C7.08564 13.3207 7.0673 13.3024 7.046 13.288L5.4 11.689C5.221 11.509 5.068 11.572 5.068 11.85V12.569V12.756V12.779H2.468V10.131H2.48H2.697H3.362C3.695 10.131 3.748 10.023 3.524 9.798L2.042 8.186C2.01102 8.14089 1.96343 8.10988 1.90965 8.09976C1.85586 8.08964 1.80026 8.10123 1.755 8.132C1.73334 8.14626 1.71466 8.1646 1.7 8.186L0.100001 9.83C-0.0789993 10.01 -0.0169993 10.163 0.262001 10.163H0.982001H1.169H1.181V14.063H5.1V14.075V14.293V14.958C5.1 15.29 5.208 15.344 5.432 15.119L7.04 13.637C7.06405 13.6222 7.08481 13.6027 7.10099 13.5795C7.11717 13.5564 7.12842 13.5302 7.13405 13.5025C7.13968 13.4749 7.13956 13.4463 7.1337 13.4187C7.12784 13.3911 7.11637 13.365 7.1 13.342V13.342Z" fill="#258277"/>
</g>
<defs>
<linearGradient id="paint0_linear" x1="8.53795" y1="12.7389" x2="8.53795" y2="-4.71007" gradientUnits="userSpaceOnUse">
<stop offset="0.156" stop-color="#258277"/>
<stop offset="0.79" stop-color="#3CD4C2"/>
</linearGradient>
<linearGradient id="paint1_linear" x1="11.7572" y1="15.998" x2="11.7572" y2="4.16998" gradientUnits="userSpaceOnUse">
<stop offset="0.129" stop-color="#37C2B1"/>
<stop offset="1" stop-color="#42E8CA"/>
</linearGradient>
<clipPath id="clip0">
<rect width="16" height="16" fill="white"/>
</clipPath>
</defs>
</svg>
