<?xml version="1.0" encoding="UTF-8"?>
<svg width="20px" height="20px" viewBox="0 0 20 20" version="1.1" xmlns="http://www.w3.org/2000/svg" xmlns:xlink="http://www.w3.org/1999/xlink">
    <!-- Generator: Sketch 51.3 (57544) - http://www.bohemiancoding.com/sketch -->
    <title>i-20x20-Union</title>
    <desc>Created with Sketch.</desc>
    <defs>
        <linearGradient x1="0%" y1="0%" x2="101.999998%" y2="100.999999%" id="linearGradient-1">
            <stop stop-color="#3023AE" offset="0%"></stop>
            <stop stop-color="#C86DD7" offset="100%"></stop>
        </linearGradient>
    </defs>
    <g id="i-20x20-Union" stroke="none" stroke-width="1" fill="none" fill-rule="evenodd">
        <g id="Page-1" transform="translate(7.083333, 6.250000)"></g>
        <path d="M8.75,6.25 L16.6666667,6.25 C17.126904,6.25 17.5,6.62309604 17.5,7.08333333 L17.5,13.3333333 C17.5,13.7935706 17.126904,14.1666667 16.6666667,14.1666667 L8.75,14.1666667 C8.28976271,14.1666667 7.91666667,13.7935706 7.91666667,13.3333333 L7.91666667,7.08333333 C7.91666667,6.62309604 8.28976271,6.25 8.75,6.25 Z" id="Rectangle-24-Copy-2" fill="url(#linearGradient-1)" fill-rule="nonzero"></path>
        <path d="M4.16666667,3.33333333 L9.16666667,3.33333333 C9.62690396,3.33333333 10,3.70642938 10,4.16666667 L10,6.25 C10,6.71023729 9.62690396,7.08333333 9.16666667,7.08333333 L4.16666667,7.08333333 C3.70642938,7.08333333 3.33333333,6.71023729 3.33333333,6.25 L3.33333333,4.16666667 C3.33333333,3.70642938 3.70642938,3.33333333 4.16666667,3.33333333 Z" id="Rectangle-24" fill="url(#linearGradient-1)" fill-rule="nonzero" opacity="0.8"></path>
        <path d="M4.16666667,8.33333333 L9.16666667,8.33333333 C9.62690396,8.33333333 10,8.70642938 10,9.16666667 L10,11.25 C10,11.7102373 9.62690396,12.0833333 9.16666667,12.0833333 L4.16666667,12.0833333 C3.70642938,12.0833333 3.33333333,11.7102373 3.33333333,11.25 L3.33333333,9.16666667 C3.33333333,8.70642938 3.70642938,8.33333333 4.16666667,8.33333333 Z" id="Rectangle-24-Copy" fill="url(#linearGradient-1)" fill-rule="nonzero" opacity="0.8"></path>
        <path d="M4.16666667,13.3333333 L9.16666667,13.3333333 C9.62690396,13.3333333 10,13.7064294 10,14.1666667 L10,16.25 C10,16.7102373 9.62690396,17.0833333 9.16666667,17.0833333 L4.16666667,17.0833333 C3.70642938,17.0833333 3.33333333,16.7102373 3.33333333,16.25 L3.33333333,14.1666667 C3.33333333,13.7064294 3.70642938,13.3333333 4.16666667,13.3333333 Z" id="Rectangle-24-Copy-3" fill="url(#linearGradient-1)" fill-rule="nonzero" opacity="0.8"></path>
        <g id="Group" transform="translate(2.916667, 3.333333)" fill="#FFFFFF" fill-rule="nonzero" opacity="0.8">
            <path d="M8.17593258,7.29166667 L0.208333333,7.29166667 L0.208333333,6.45833333 L8.17593258,6.45833333 C7.57471086,6.14811847 7.02434824,5.73600864 6.5258141,5.22205854 C5.36477166,4.02511368 4.77439712,2.24957814 4.70618713,0.0318816056 L5.3727184,0 C5.43415624,1.99751499 5.95014684,3.54934285 6.95080985,4.58094893 C7.80476389,5.46130943 8.82966679,6.01009618 10.0322295,6.22768789 L10.0479167,5 L12.89,6.92220544 L10,8.75 L10.0156485,7.52533534 C8.82024303,7.74495874 7.80083643,8.29273948 6.95080985,9.16905107 C5.95014684,10.2006572 5.43415624,11.752485 5.3727184,13.75 L4.70618713,13.7181184 C4.77439712,11.5004219 5.36477166,9.72488632 6.5258141,8.52794146 C7.02434824,8.01399136 7.57471086,7.60188153 8.17593258,7.29166667 Z" id="Combined-Shape"></path>
        </g>
    </g>
</svg>