<?xml version="1.0" encoding="UTF-8"?>
<svg width="20px" height="20px" viewBox="0 0 20 20" version="1.1" xmlns="http://www.w3.org/2000/svg" xmlns:xlink="http://www.w3.org/1999/xlink">
    <!-- Generator: Sketch 51.3 (57544) - http://www.bohemiancoding.com/sketch -->
    <title>i-20x20-Join</title>
    <desc>Created with Sketch.</desc>
    <defs>
        <linearGradient x1="0%" y1="0%" x2="101.999998%" y2="100.999999%" id="linearGradient-1">
            <stop stop-color="#3023AE" offset="0%"></stop>
            <stop stop-color="#C86DD7" offset="100%"></stop>
        </linearGradient>
    </defs>
    <g id="i-20x20-Join" stroke="none" stroke-width="1" fill="none" fill-rule="evenodd">
        <g id="Page-1" transform="translate(7.083333, 6.250000)"></g>
        <path d="M8.75,6.25 L16.6666667,6.25 C17.126904,6.25 17.5,6.62309604 17.5,7.08333333 L17.5,13.3333333 C17.5,13.7935706 17.126904,14.1666667 16.6666667,14.1666667 L8.75,14.1666667 C8.28976271,14.1666667 7.91666667,13.7935706 7.91666667,13.3333333 L7.91666667,7.08333333 C7.91666667,6.62309604 8.28976271,6.25 8.75,6.25 Z" id="Rectangle-24-Copy-2" fill="url(#linearGradient-1)" fill-rule="nonzero"></path>
        <path d="M4.16666667,11.25 L8.33333333,11.25 C8.79357062,11.25 9.16666667,11.623096 9.16666667,12.0833333 L9.16666667,16.25 C9.16666667,16.7102373 8.79357062,17.0833333 8.33333333,17.0833333 L4.16666667,17.0833333 C3.70642938,17.0833333 3.33333333,16.7102373 3.33333333,16.25 L3.33333333,12.0833333 C3.33333333,11.623096 3.70642938,11.25 4.16666667,11.25 Z" id="Rectangle-24-Copy" fill="url(#linearGradient-1)" fill-rule="nonzero" opacity="0.8"></path>
        <path d="M4.16666667,3.33333333 L8.33333333,3.33333333 C8.79357062,3.33333333 9.16666667,3.70642938 9.16666667,4.16666667 L9.16666667,8.33333333 C9.16666667,8.79357062 8.79357062,9.16666667 8.33333333,9.16666667 L4.16666667,9.16666667 C3.70642938,9.16666667 3.33333333,8.79357062 3.33333333,8.33333333 L3.33333333,4.16666667 C3.33333333,3.70642938 3.70642938,3.33333333 4.16666667,3.33333333 Z" id="Rectangle-24" fill="url(#linearGradient-1)" fill-rule="nonzero" opacity="0.8"></path>
        <g id="Group" transform="translate(5.416667, 3.333333)" fill="#FFFFFF" fill-rule="nonzero" opacity="0.8">
            <path d="M5.620505,6.875 C4.3531051,6.5673918 3.23588804,6.01634401 2.27332414,5.22205854 C0.822792875,4.02511368 0.0852171519,2.24957814 0,0.0318816056 L0.832721018,0 C0.909477479,1.99751499 1.55412273,3.54934285 2.80428631,4.58094893 C3.88175052,5.47004748 5.17704782,6.02095751 6.69881467,6.23406914 L6.71458333,5 L9.55666667,6.92220544 L6.66666667,8.75 L6.68240578,7.51824313 C5.16773438,7.73300921 3.87787576,8.28314989 2.80428631,9.16905107 C1.55412273,10.2006572 0.909477479,11.752485 0.832721018,13.75 L0,13.7181184 C0.0852171519,11.5004219 0.822792875,9.72488632 2.27332414,8.52794146 C3.23588804,7.73365599 4.3531051,7.1826082 5.620505,6.875 Z" id="Combined-Shape"></path>
        </g>
    </g>
</svg>