<svg id="bface812-2be5-4efb-babc-3fa311b3555d" data-name="icon" xmlns="http://www.w3.org/2000/svg" xmlns:xlink="http://www.w3.org/1999/xlink" width="16" height="16" viewBox="0 0 16 16">
  <defs>
    <linearGradient id="ad723506-36a8-4039-81f7-2932e79b2f89" x1="2.667" y1="181.163" x2="2.667" y2="170.749" gradientTransform="matrix(1, 0, 0, -1, 0, 192.108)" gradientUnits="userSpaceOnUse">
      <stop offset="0" stop-color="#fcc581"/>
      <stop offset="0.504" stop-color="#ffb34d"/>
      <stop offset="1" stop-color="#faa21d"/>
    </linearGradient>
    <linearGradient id="f82da084-5737-46a1-a5e4-e5c0f88950f3" x1="12.049" y1="181.127" x2="12.049" y2="175.188" xlink:href="#ad723506-36a8-4039-81f7-2932e79b2f89"/>
    <linearGradient id="ecff0e1c-a469-471c-9cd1-2319f6623bfc" x1="7.462" y1="194.369" x2="7.462" y2="184.607" xlink:href="#ad723506-36a8-4039-81f7-2932e79b2f89"/>
  </defs>
  <g>
    <path d="M11.25,8.119H9.387A1.5,1.5,0,0,1,7.881,6.635V3.508h-.9V6.635A1.5,1.5,0,0,1,5.479,8.119H3.616A1.182,1.182,0,0,0,2.425,9.292v2.286h.834V9.289a.35.35,0,0,1,.353-.347H5.539A2.349,2.349,0,0,0,7.264,8.2a.225.225,0,0,1,.337,0,2.353,2.353,0,0,0,1.726.747h1.927a.35.35,0,0,1,.353.347v2.289h.834V9.292A1.182,1.182,0,0,0,11.25,8.119Z" fill="#d15900"/>
    <path d="M.478,10.269H4.857a.474.474,0,0,1,.477.471v4.314a.474.474,0,0,1-.477.47H.478A.474.474,0,0,1,0,15.054V10.74A.475.475,0,0,1,.478,10.269Z" fill="url(#ad723506-36a8-4039-81f7-2932e79b2f89)"/>
    <path d="M14.716,10.74v4.314a.474.474,0,0,1-.478.47H9.859a.474.474,0,0,1-.477-.47V10.74a.474.474,0,0,1,.477-.471h4.379A.475.475,0,0,1,14.716,10.74Z" fill="url(#f82da084-5737-46a1-a5e4-e5c0f88950f3)"/>
    <path d="M5.273.476H9.652a.474.474,0,0,1,.478.47V5.26a.475.475,0,0,1-.478.471H5.273A.475.475,0,0,1,4.8,5.26V.946A.474.474,0,0,1,5.273.476Z" fill="url(#ecff0e1c-a469-471c-9cd1-2319f6623bfc)"/>
    <path d="M15.867,10.545l-.266-.262a.458.458,0,0,0-.642,0l-2.575,2.532-1.059-1.041a.458.458,0,0,0-.642,0l-.267.262a.445.445,0,0,0,0,.634L12.064,14.3a.457.457,0,0,0,.321.131.464.464,0,0,0,.321-.131l3.161-3.117A.444.444,0,0,0,15.867,10.545Z" fill="#d15900"/>
  </g>
</svg>
