<?xml version="1.0" encoding="UTF-8"?>
<svg width="20px" height="20px" viewBox="0 0 20 20" version="1.1" xmlns="http://www.w3.org/2000/svg" xmlns:xlink="http://www.w3.org/1999/xlink">
    <!-- Generator: Sketch 51.3 (57544) - http://www.bohemiancoding.com/sketch -->
    <title>E-Icons/Data_Flow-Icons/i-20x20-Pivot</title>
    <desc>Created with Sketch.</desc>
    <defs>
        <linearGradient x1="50%" y1="0%" x2="50%" y2="100%" id="linearGradient-1">
            <stop stop-color="#92D846" offset="0%"></stop>
            <stop stop-color="#4B8400" offset="100%"></stop>
        </linearGradient>
        <linearGradient x1="0%" y1="39.8586839%" x2="100%" y2="39.8586839%" id="linearGradient-2">
            <stop stop-color="#92D846" offset="0%"></stop>
            <stop stop-color="#4B8400" offset="100%"></stop>
        </linearGradient>
    </defs>
    <g id="E-Icons/Data_Flow-Icons/i-20x20-Pivot" stroke="none" stroke-width="1" fill="none" fill-rule="evenodd">
        <g id="files_PivotTable_PivotTable_16x" transform="translate(3.000000, 3.000000)">
            <g id="Group">
                <path d="M13.3,4 L4.7,4 C4.31340068,4 4,3.68659932 4,3.3 L4,0.7 C4,0.313400675 4.31340068,7.10171439e-17 4.7,0 L13.3,0 C13.6865993,-7.10171439e-17 14,0.313400675 14,0.7 L14,3.3 C14,3.68659932 13.6865993,4 13.3,4 Z" id="iconBg-path" fill="url(#linearGradient-1)" fill-rule="nonzero" opacity="0.5"></path>
                <path d="M3.3,14 L0.7,14 C0.313400675,14 4.73447626e-17,13.6865993 0,13.3 L0,4.7 C-4.73447626e-17,4.31340068 0.313400675,4 0.7,4 L3.3,4 C3.68659932,4 4,4.31340068 4,4.7 L4,13.3 C4,13.6865993 3.68659932,14 3.3,14 Z" id="iconBg-path" fill="url(#linearGradient-2)" fill-rule="nonzero"></path>
                <path d="M8.88469002,9.32471879 L11.8667837,9.32471879 C12.2574974,9.32471879 12.5742334,9.00371683 12.5742334,8.60774085 L12.5742334,5.0548912 L13.9891328,5.0548912 L13.9891328,8.60774085 C13.9891328,9.79566879 13.0389248,10.7586747 11.8667837,10.7586747 L8.88469002,10.7586747 L8.88469002,12.8793504 L5.92337444,10.0495516 L8.88469002,7.21975277 L8.88469002,9.32471879 Z" id="Combined-Shape" fill="#4F8707" transform="translate(9.956254, 8.967121) scale(-1, 1) rotate(90.000000) translate(-9.956254, -8.967121) "></path>
            </g>
        </g>
    </g>
</svg>