<?xml version="1.0" encoding="UTF-8"?>
<svg width="20px" height="20px" viewBox="0 0 20 20" version="1.1" xmlns="http://www.w3.org/2000/svg" xmlns:xlink="http://www.w3.org/1999/xlink">
    <!-- Generator: Sketch 51.3 (57544) - http://www.bohemiancoding.com/sketch -->
    <title>i-20x20-Surrogate key</title>
    <desc>Created with Sketch.</desc>
    <defs>
        <linearGradient x1="50%" y1="0%" x2="50%" y2="100%" id="linearGradient-1">
            <stop stop-color="#92D846" offset="0%"></stop>
            <stop stop-color="#4B8400" offset="100%"></stop>
        </linearGradient>
        <linearGradient x1="50%" y1="0%" x2="50%" y2="100%" id="linearGradient-2">
            <stop stop-color="#5DB300" offset="0%"></stop>
            <stop stop-color="#386300" offset="100%"></stop>
        </linearGradient>
    </defs>
    <g id="i-20x20-Surrogate-key" stroke="none" stroke-width="1" fill="none" fill-rule="evenodd">
        <g id="files_TableKeyColumn_TableKeyColumn_16x" transform="translate(9.833333, 4.666667)">
            <g id="icon_x5F_bg">
                <path d="M0.166666667,0.333333333 L6.16666667,0.333333333 L6.16666667,3.33333333 L0.166666667,3.33333333 L0.166666667,0.333333333 Z M0.166666667,4.33333333 L6.16666667,4.33333333 L6.16666667,7.33333333 L0.166666667,7.33333333 L0.166666667,4.33333333 Z" id="Shape"></path>
            </g>
        </g>
        <path d="M3.33333333,2.91666667 L16.25,2.91666667 C16.7102373,2.91666667 17.0833333,3.28976271 17.0833333,3.75 L17.0833333,16.25 C17.0833333,16.7102373 16.7102373,17.0833333 16.25,17.0833333 L3.33333333,17.0833333 C2.87309604,17.0833333 2.5,16.7102373 2.5,16.25 L2.5,3.75 C2.5,3.28976271 2.87309604,2.91666667 3.33333333,2.91666667 Z" id="Rectangle-25" fill="url(#linearGradient-1)" fill-rule="nonzero" opacity="0.876674107"></path>
        <path d="M3.33333333,2.91666667 L16.25,2.91666667 C16.7102373,2.91666667 17.0833333,3.28976271 17.0833333,3.75 L17.0833333,16.25 C17.0833333,16.7102373 16.7102373,17.0833333 16.25,17.0833333 L3.33333333,17.0833333 C2.87309604,17.0833333 2.5,16.7102373 2.5,16.25 L2.5,3.75 C2.5,3.28976271 2.87309604,2.91666667 3.33333333,2.91666667 Z M3.75,5 L3.75,7.91666667 L15.8333333,7.91666667 L15.8333333,5 L3.75,5 Z M3.75,9.16666667 L3.75,12.0833333 L15.8333333,12.0833333 L15.8333333,9.16666667 L3.75,9.16666667 Z M3.75,13.3333333 L3.75,16.25 L15.8333333,16.25 L15.8333333,13.3333333 L3.75,13.3333333 Z" id="Combined-Shape" fill="url(#linearGradient-2)" fill-rule="nonzero"></path>
        <path d="M6.3030303,10.2272727 L6.3030303,12.4848485 L8.56060606,12.4848485 L8.56060606,13.6136364 L6.3030303,13.6136364 L6.3030303,14.7424242 L8.56060606,14.7424242 L8.56060606,15.8712121 L6.3030303,15.8712121 L6.3030303,17 L5.17424242,17 L5.17424242,10.2272727 C3.88629545,9.96652273 2.91666667,8.77000758 2.91666667,7.40530303 C2.91666667,5.8467722 4.18010554,4.58333333 5.73863636,4.58333333 C7.29716719,4.58333333 8.56060606,5.8467722 8.56060606,7.40530303 C8.56060606,8.77000758 7.59097727,9.96652273 6.3030303,10.2272727 Z M5.73863636,9.09848485 C6.67375486,9.09848485 7.43181818,8.34042153 7.43181818,7.40530303 C7.43181818,6.47018453 6.67375486,5.71212121 5.73863636,5.71212121 C4.80351787,5.71212121 4.04545455,6.47018453 4.04545455,7.40530303 C4.04545455,8.34042153 4.80351787,9.09848485 5.73863636,9.09848485 Z" id="Combined-Shape" fill="#FFFFFF" fill-rule="nonzero" opacity="0.79644"></path>
    </g>
</svg>