<svg id="a701dfbb-1277-4937-af1a-b7794aee0c6b" data-name="icon" xmlns="http://www.w3.org/2000/svg" xmlns:xlink="http://www.w3.org/1999/xlink" width="16" height="16" viewBox="0 0 16 16">
  <defs>
    <linearGradient id="b5e6e760-2dc9-4355-b395-6be3183e9ac3" x1="4.112" y1="8.947" x2="4.112" y2="-0.749" gradientUnits="userSpaceOnUse">
      <stop offset="0.129" stop-color="#37c2b1"/>
      <stop offset="1" stop-color="#42e8ca"/>
    </linearGradient>
    <linearGradient id="b29a52d1-f0e6-40e3-8302-53ecde3c8e8f" x1="11.888" y1="17.495" x2="11.888" y2="3.19" gradientUnits="userSpaceOnUse">
      <stop offset="0.156" stop-color="#258277"/>
      <stop offset="0.79" stop-color="#3cd4c2"/>
    </linearGradient>
  </defs>
  <g>
    <g>
      <rect x="0.633" width="6.958" height="8.52" rx="0.284" fill="url(#b5e6e760-2dc9-4355-b395-6be3183e9ac3)"/>
      <g>
        <path d="M3.432,3.722V2.712c0-.185.067-.294.195-.335a.189.189,0,0,0,.129-.182h0A.191.191,0,0,0,3.565,2H3.55a.73.73,0,0,0-.429.146.749.749,0,0,0-.183.576V3.765c0,.2-.061.321-.183.364a.156.156,0,0,0-.114.145v.259a.158.158,0,0,0,.115.145c.122.043.183.164.183.364v1a.749.749,0,0,0,.184.578.731.731,0,0,0,.429.147.192.192,0,0,0,.206-.177V6.579h0A.189.189,0,0,0,3.629,6.4c-.128-.04-.195-.15-.195-.335V5.084c0-.324-.085-.541-.3-.626,0,0-.086-.018-.087-.055s.109-.073.109-.073C3.37,4.246,3.432,4.047,3.432,3.722Z" fill="#258277"/>
        <path d="M5.019,3.722V2.712c0-.185-.068-.294-.2-.335a.188.188,0,0,1-.13-.182h0A.191.191,0,0,1,4.885,2H4.9a.73.73,0,0,1,.429.146.752.752,0,0,1,.184.579V3.765c0,.2.061.321.183.364a.156.156,0,0,1,.115.145v.259a.157.157,0,0,1-.115.145c-.122.043-.183.164-.183.364v1a.749.749,0,0,1-.184.578.731.731,0,0,1-.429.147.192.192,0,0,1-.206-.177V6.579h0a.189.189,0,0,1,.13-.182c.127-.04.2-.15.2-.335V5.084c0-.324.084-.541.3-.626,0,0,.086-.018.087-.055s-.108-.073-.108-.073C5.082,4.246,5.019,4.047,5.019,3.722Z" fill="#258277"/>
      </g>
    </g>
    <g>
      <rect x="8.409" y="7.48" width="6.958" height="8.52" rx="0.284" fill="url(#b29a52d1-f0e6-40e3-8302-53ecde3c8e8f)"/>
      <path d="M14.091,10.558v-.6a.071.071,0,0,0-.071-.071H9.8a.071.071,0,0,0-.071.071h0v.595a.07.07,0,0,0,.07.071h4.218a.071.071,0,0,0,.071-.071h0Zm0,1.48v-.6a.071.071,0,0,0-.071-.071H9.8a.07.07,0,0,0-.071.07h0v.6a.071.071,0,0,0,.07.071h4.218a.071.071,0,0,0,.071-.071Zm0,1.481v-.6a.071.071,0,0,0-.071-.071H9.8a.071.071,0,0,0-.071.071h0v.6a.07.07,0,0,0,.07.071h4.218a.071.071,0,0,0,.071-.071Z" fill="#42e8ca"/>
    </g>
    <path d="M7.526,12.4a.217.217,0,0,0-.059-.058L5.69,10.612c-.194-.194-.359-.126-.359.175v.777l0,.2,0,.24a3.318,3.318,0,0,1-.438.035A3.263,3.263,0,0,1,1.872,9.97H.725A4.351,4.351,0,0,0,4.9,13.15a4.363,4.363,0,0,0,.461-.038l0,.071,0,.236v.718c0,.36.116.418.359.175l1.738-1.6A.224.224,0,0,0,7.526,12.4Z" fill="#258277"/>
  </g>
</svg>
