<?xml version="1.0" encoding="UTF-8"?>
<svg width="20px" height="20px" viewBox="0 0 20 20" version="1.1" xmlns="http://www.w3.org/2000/svg" xmlns:xlink="http://www.w3.org/1999/xlink">
    <!-- Generator: Sketch 54.1 (76490) - https://sketchapp.com -->
    <title>E-Icons/Data_Flow-Icons/i-20x20-Select</title>
    <desc>Created with Sketch.</desc>
    <defs>
        <linearGradient x1="50%" y1="0%" x2="50%" y2="100%" id="linearGradient-1">
            <stop stop-color="#92D846" offset="0%"></stop>
            <stop stop-color="#4B8400" offset="100%"></stop>
        </linearGradient>
        <linearGradient x1="50%" y1="0%" x2="50%" y2="100%" id="linearGradient-2">
            <stop stop-color="#92D846" offset="0%"></stop>
            <stop stop-color="#4B8400" offset="100%"></stop>
        </linearGradient>
    </defs>
    <g id="E-Icons/Data_Flow-Icons/i-20x20-Select" stroke="none" stroke-width="1" fill="none" fill-rule="evenodd">
        <g id="Group-4" transform="translate(2.916667, 5.833333)"></g>
        <g id="Group-4-Copy" transform="translate(10.000000, 5.833333)" fill="url(#linearGradient-1)" fill-rule="nonzero" opacity="0.33">
            <path d="M6.66666667,0.637681159 L6.66666667,7.97101449 L6.65846505,7.97101449 C6.6639024,7.99709038 6.66666667,8.02341266 6.66666667,8.04995075 C6.66666667,8.66656406 5.17433333,9.16666667 3.33333333,9.16666667 C1.49233333,9.16666667 0,8.66656406 0,8.04995075 C0,8.02341266 0.00276426398,7.99709038 0.00820161815,7.97101449 L0,7.97101449 L0,0.637681159 C1.73213296e-15,0.285574879 1.49233333,0 3.33333333,0 C5.17433333,0 6.66666667,0.285574879 6.66666667,0.637681159 Z" id="Combined-Shape"></path>
        </g>
        <path d="M12.0833333,11.6666667 L9.58333333,11.6666667 L9.58333333,13.8043478 L9.57513172,13.8043478 C9.58056907,13.8304237 9.58333333,13.856746 9.58333333,13.8832841 C9.58333333,14.4998974 8.091,15 6.25,15 C4.409,15 2.91666667,14.4998974 2.91666667,13.8832841 C2.91666667,13.856746 2.91943093,13.8304237 2.92486828,13.8043478 L2.91666667,13.8043478 L2.91666667,6.47101449 C2.91666667,6.11890821 4.409,5.83333333 6.25,5.83333333 C8.091,5.83333333 9.58333333,6.11890821 9.58333333,6.47101449 L9.58333333,10.4166667 L12.0833333,10.4166667 L12.0833333,9.16666667 L15.3904606,11.0760191 L12.0833333,12.985875 L12.0833333,11.6666667 Z" id="Combined-Shape" fill="url(#linearGradient-2)"></path>
        <path d="M9.58333333,6.45833333 C9.58333333,6.8034375 8.091,7.08333333 6.25,7.08333333 C4.409,7.08333333 2.91666667,6.8034375 2.91666667,6.45833333 C2.91666667,6.11322917 4.409,5.83333333 6.25,5.83333333 C8.091,5.83333333 9.58333333,6.11322917 9.58333333,6.45833333" id="Fill-2" fill="#FFFFFF" opacity="0.414006696"></path>
        <path d="M16.6666667,6.45833333 C16.6666667,6.8034375 15.1743333,7.08333333 13.3333333,7.08333333 C11.4923333,7.08333333 10,6.8034375 10,6.45833333 C10,6.11322917 11.4923333,5.83333333 13.3333333,5.83333333 C15.1743333,5.83333333 16.6666667,6.11322917 16.6666667,6.45833333" id="Fill-2" fill="#FFFFFF" opacity="0.236662946"></path>
    </g>
</svg>