<?xml version="1.0" encoding="UTF-8"?>
<svg width="20px" height="20px" viewBox="0 0 20 20" version="1.1" xmlns="http://www.w3.org/2000/svg" xmlns:xlink="http://www.w3.org/1999/xlink">
    <!-- Generator: Sketch 51.3 (57544) - http://www.bohemiancoding.com/sketch -->
    <title>E-Icons/Data_Flow-Icons/i-20x20-Window</title>
    <desc>Created with Sketch.</desc>
    <defs>
        <linearGradient x1="50%" y1="0%" x2="50%" y2="100%" id="linearGradient-1">
            <stop stop-color="#92D846" offset="0%"></stop>
            <stop stop-color="#4B8400" offset="100%"></stop>
        </linearGradient>
        <linearGradient x1="50%" y1="0%" x2="50%" y2="100%" id="linearGradient-2">
            <stop stop-color="#5DB300" offset="0%"></stop>
            <stop stop-color="#386300" offset="100%"></stop>
        </linearGradient>
    </defs>
    <g id="E-Icons/Data_Flow-Icons/i-20x20-Window" stroke="none" stroke-width="1" fill="none" fill-rule="evenodd">
        <g id="Group" transform="translate(3.000000, 6.000000)" fill="url(#linearGradient-1)" fill-rule="nonzero" opacity="0.492410714">
            <g id="files_PivotTable_PivotTable_16x">
                <path d="M13.3,7.84 L0.7,7.84 C0.313400675,7.84 3.8041167e-16,7.52659932 3.33066907e-16,7.14 L0,0.7 C-4.73447626e-17,0.313400675 0.313400675,4.04084051e-16 0.7,3.33066907e-16 L13.3,0 C13.6865993,-1.10112468e-15 14,0.313400675 14,0.7 L14,7.14 C14,7.52659932 13.6865993,7.84 13.3,7.84 Z" id="iconBg-path"></path>
            </g>
        </g>
        <path d="M7,4 L7,16 L13,16 L13,4 L7,4 Z M6,3 L14,3 L14,17 L6,17 L6,3 Z" id="Rectangle-30" fill="url(#linearGradient-2)" fill-rule="nonzero"></path>
    </g>
</svg>
