<?xml version="1.0" encoding="UTF-8"?>
<svg width="20px" height="20px" viewBox="0 0 20 20" version="1.1" xmlns="http://www.w3.org/2000/svg" xmlns:xlink="http://www.w3.org/1999/xlink">
    <!-- Generator: Sketch 51.3 (57544) - http://www.bohemiancoding.com/sketch -->
    <title>i-20x20-Exists</title>
    <desc>Created with Sketch.</desc>
    <defs>
        <polygon id="path-1" points="11.5014583 9.58333333 11.5014583 8.33333333 14.1664583 9.85113412 11.5014583 11.25 11.5014583 10 9.58333333 10 9.58333333 9.58333333"></polygon>
        <filter x="-76.4%" y="-85.7%" width="252.7%" height="340.0%" filterUnits="objectBoundingBox" id="filter-2">
            <feOffset dx="0" dy="1" in="SourceAlpha" result="shadowOffsetOuter1"></feOffset>
            <feGaussianBlur stdDeviation="1" in="shadowOffsetOuter1" result="shadowBlurOuter1"></feGaussianBlur>
            <feColorMatrix values="0 0 0 0 0   0 0 0 0 0   0 0 0 0 0  0 0 0 0.16259058 0" type="matrix" in="shadowBlurOuter1"></feColorMatrix>
        </filter>
        <linearGradient x1="0%" y1="3.53616596%" x2="95.348216%" y2="93.7865732%" id="linearGradient-3">
            <stop stop-color="#FAD961" offset="0%"></stop>
            <stop stop-color="#F76B1C" offset="100%"></stop>
        </linearGradient>
        <linearGradient x1="5.50525597%" y1="0%" x2="100%" y2="94.6043472%" id="linearGradient-4">
            <stop stop-color="#FAD961" offset="0%"></stop>
            <stop stop-color="#F76B1C" offset="100%"></stop>
        </linearGradient>
    </defs>
    <g id="i-20x20-Exists" stroke="none" stroke-width="1" fill="none" fill-rule="evenodd">
        <g id="Combined-Shape" opacity="0.95">
            <use fill="black" fill-opacity="1" filter="url(#filter-2)" xlink:href="#path-1"></use>
            <use fill="#FFFFFF" fill-rule="evenodd" xlink:href="#path-1"></use>
        </g>
        <path d="M8.44310665,4.33925565 L13.4517797,9.34792868 C13.7772166,9.67336559 13.7772166,10.2010031 13.4517797,10.52644 L8.44310665,15.535113 C8.11766974,15.8605499 7.59003226,15.8605499 7.26459535,15.535113 L2.25592232,10.52644 C1.93048541,10.2010031 1.93048541,9.67336559 2.25592232,9.34792868 L7.26459535,4.33925565 C7.59003226,4.01381874 8.11766974,4.01381874 8.44310665,4.33925565 Z" id="Rectangle-27" fill="url(#linearGradient-3)" fill-rule="nonzero" opacity="0.3"></path>
        <path d="M13.8384628,5.71129449 L17.6263754,9.4992071 C17.7890938,9.66192555 17.7890938,9.9257443 17.6263754,10.0884628 L13.8384628,13.8763754 C13.6757443,14.0390938 13.4119256,14.0390938 13.2492071,13.8763754 L9.46129449,10.0884628 C9.29857604,9.9257443 9.29857604,9.66192555 9.46129449,9.4992071 L13.2492071,5.71129449 C13.4119256,5.54857604 13.6757443,5.54857604 13.8384628,5.71129449 Z" id="Rectangle-27" fill="url(#linearGradient-4)" fill-rule="nonzero"></path>
        <g id="Group" transform="translate(7.500000, 11.666667) scale(-1, 1) translate(-7.500000, -11.666667) translate(3.333333, 7.500000)" fill-rule="nonzero">
            <path d="M3.78809639,4.69470561 L1.22081765,7.231177 L0.693815449,6.71049883 L3.27028607,4.16494586 C2.95131794,3.72890992 2.77147888,3.19824936 2.77129137,2.6422556 C2.770807,1.20599766 3.94887293,0.0412925988 5.40257529,0.0408140057 C6.85627765,0.0403354126 8.03512895,1.20426452 8.03561339,2.64052246 C8.03592676,3.56961846 7.53452927,4.42830374 6.72029249,4.89311987 C5.90605571,5.35793599 4.90268158,5.35826632 4.08813145,4.89398644 C3.98275173,4.83392177 3.88260356,4.76726145 3.78809639,4.69470561 Z M3.72466272,2.64194174 C3.72486257,3.23451824 4.04502274,3.78197617 4.56454201,4.07809342 C5.08406127,4.37421067 5.72401228,4.37399998 6.24333168,4.07754072 C6.76265109,3.78108146 7.08244191,3.23341285 7.08224204,2.64083635 C7.08193306,1.72479248 6.33006288,0.982439653 5.40289297,0.9827449 C4.47572306,0.983050146 3.72435379,1.72589787 3.72466272,2.64194174 Z" id="Combined-Shape" fill="#F76C1C"></path>
            <polygon id="Line-2" fill="#F76C1C" opacity="0.658761161" points="1.24248867 7.99833325 0 6.77075444 2.01904342 4.73447419 3.24881988 5.94871451"></polygon>
            <path d="M3.83699634,2.64190476 C3.83718281,3.19482992 4.13591996,3.70565555 4.6206764,3.98195857 C5.10543283,4.25826159 5.70256251,4.258065 6.18713246,3.98144286 C6.67170241,3.70482071 6.97009492,3.19379849 6.96990842,2.64087333 C6.96962013,1.78612512 6.26806017,1.09344569 5.4029304,1.09373051 C4.53780063,1.09401533 3.83670807,1.78715655 3.83699634,2.64190476 Z" id="Path" fill="#FFFFFF" opacity="0.3"></path>
        </g>
    </g>
</svg>