<?xml version="1.0" encoding="UTF-8"?>
<svg width="20px" height="20px" viewBox="0 0 20 20" version="1.1" xmlns="http://www.w3.org/2000/svg" xmlns:xlink="http://www.w3.org/1999/xlink">
    <!-- Generator: Sketch 51.3 (57544) - http://www.bohemiancoding.com/sketch -->
    <title>i-20x20-Split</title>
    <desc>Created with Sketch.</desc>
    <defs>
        <linearGradient x1="0%" y1="0%" x2="101.999998%" y2="100.999999%" id="linearGradient-1">
            <stop stop-color="#3023AE" offset="0%"></stop>
            <stop stop-color="#C86DD7" offset="100%"></stop>
        </linearGradient>
    </defs>
    <g id="i-20x20-Split" stroke="none" stroke-width="1" fill="none" fill-rule="evenodd">
        <path d="M4.16666667,6.25 L12.0833333,6.25 C12.5435706,6.25 12.9166667,6.62309604 12.9166667,7.08333333 L12.9166667,13.3333333 C12.9166667,13.7935706 12.5435706,14.1666667 12.0833333,14.1666667 L4.16666667,14.1666667 C3.70642938,14.1666667 3.33333333,13.7935706 3.33333333,13.3333333 L3.33333333,7.08333333 C3.33333333,6.62309604 3.70642938,6.25 4.16666667,6.25 Z" id="Rectangle-24-Copy-2" fill="url(#linearGradient-1)" fill-rule="nonzero"></path>
        <path d="M11.6666667,11.25 L15.8333333,11.25 C16.2935706,11.25 16.6666667,11.623096 16.6666667,12.0833333 L16.6666667,16.25 C16.6666667,16.7102373 16.2935706,17.0833333 15.8333333,17.0833333 L11.6666667,17.0833333 C11.2064294,17.0833333 10.8333333,16.7102373 10.8333333,16.25 L10.8333333,12.0833333 C10.8333333,11.623096 11.2064294,11.25 11.6666667,11.25 Z" id="Rectangle-24-Copy" fill="url(#linearGradient-1)" fill-rule="nonzero" opacity="0.8"></path>
        <path d="M11.6666667,3.33333333 L15.8333333,3.33333333 C16.2935706,3.33333333 16.6666667,3.70642938 16.6666667,4.16666667 L16.6666667,8.33333333 C16.6666667,8.79357062 16.2935706,9.16666667 15.8333333,9.16666667 L11.6666667,9.16666667 C11.2064294,9.16666667 10.8333333,8.79357062 10.8333333,8.33333333 L10.8333333,4.16666667 C10.8333333,3.70642938 11.2064294,3.33333333 11.6666667,3.33333333 Z" id="Rectangle-24" fill="url(#linearGradient-1)" fill-rule="nonzero" opacity="0.8"></path>
        <path d="M10.5266688,7.96307079 L9.58333333,7.0435386 L12.9193179,6.29244593 L12.268866,9.66130683 L11.1905558,8.61020578 C9.57193753,9.5134981 7.83176136,10.0322166 5.68228923,10.2360808 C7.84676774,10.4413017 9.59575475,10.965727 11.2238087,11.8805278 L12.268866,10.8618405 L12.9193179,14.2307014 L9.58333333,13.4796088 L10.5593159,12.5282533 C8.57856185,11.3583958 6.41185047,10.8570394 3.36430646,10.8570394 L3.36430646,10.3375833 L3.36414568,9.61516891 C6.39503783,9.61516891 8.55469683,9.11927646 10.5266688,7.96307079 Z" id="Combined-Shape" fill="#FFFFFF" opacity="0.79683"></path>
    </g>
</svg>