<svg id="a8c553aa-842a-4f03-bc60-6ab24253a583" data-name="icon" xmlns="http://www.w3.org/2000/svg" xmlns:xlink="http://www.w3.org/1999/xlink" width="16" height="16" viewBox="0 0 16 16">
  <defs>
    <linearGradient id="b3b9db9f-9d9f-456e-952a-f8d6577f3be0" x1="10.627" y1="272.169" x2="10.627" y2="260.071" gradientTransform="matrix(1, 0, 0, -1, 0, 272)" gradientUnits="userSpaceOnUse">
      <stop offset="0" stop-color="#76bc2d"/>
      <stop offset="0.461" stop-color="#5e9624"/>
      <stop offset="1" stop-color="#365615"/>
    </linearGradient>
  </defs>
  <g>
    <circle cx="10.627" cy="5.681" r="5.325" fill="url(#b3b9db9f-9d9f-456e-952a-f8d6577f3be0)"/>
    <path d="M14.169,4.673,12.433,2.984c-.186-.187-.35-.123-.35.171v.758a.209.209,0,0,1-.208.21h-.011c-1.118,0-4.241.294-4.355,4.565a.217.217,0,0,0,.217.219H8.838a.218.218,0,0,0,.219-.218h0V8.67A2.623,2.623,0,0,1,11.9,5.507a.22.22,0,0,1,.218.219v.7c0,.351.114.408.351.171l1.7-1.566a.217.217,0,0,0,.058-.3A.242.242,0,0,0,14.169,4.673Z" fill="#fff"/>
    <circle cx="5.474" cy="10.226" r="5.299" fill="#5e9624"/>
    <path d="M10.89,10.047h-.008a5.418,5.418,0,1,0,0,.358h.008Zm-2.248,0a6.224,6.224,0,0,0-.435-2.256H9.882a5,5,0,0,1,.634,2.256Zm-8.216.358H2.375a6.217,6.217,0,0,0,.447,2.257H1.064a5,5,0,0,1-.635-2.257ZM7.652,7.434h-2V5.408A5.7,5.7,0,0,1,7.652,7.434Zm-2.357,0H3.423A6.041,6.041,0,0,1,5.3,5.551Zm0,.357v2.256H2.734a5.413,5.413,0,0,1,.511-2.256ZM2.374,10.047H.429a5,5,0,0,1,.634-2.256H2.851A5.821,5.821,0,0,0,2.374,10.047Zm.358.358H5.293v2.257H3.224A5.737,5.737,0,0,1,2.732,10.405Zm2.561,2.614v2a5.857,5.857,0,0,1-1.9-2Zm.358,0h1.97a5.912,5.912,0,0,1-1.97,2.05Zm0-.357V10.405H8.289A5.756,5.756,0,0,1,7.8,12.662Zm0-2.615V7.791H7.818a5.793,5.793,0,0,1,.467,2.256ZM9.69,7.434H8.039A5.869,5.869,0,0,0,6,5.217,5.048,5.048,0,0,1,9.691,7.434Zm-4.5-2.243A6.36,6.36,0,0,0,3.03,7.434H1.257A5.052,5.052,0,0,1,5.191,5.191ZM1.258,13.019H3A6.056,6.056,0,0,0,4.98,15.24,5.052,5.052,0,0,1,1.258,13.019Zm4.791,2.212a6.05,6.05,0,0,0,1.976-2.212H9.691A5.058,5.058,0,0,1,6.049,15.231Zm3.835-2.569H8.2a6.171,6.171,0,0,0,.447-2.257h1.872A4.994,4.994,0,0,1,9.884,12.662Z" fill="#b4ec36"/>
  </g>
</svg>
