<?xml version="1.0" encoding="UTF-8"?>
<svg width="20px" height="20px" viewBox="0 0 20 20" version="1.1" xmlns="http://www.w3.org/2000/svg" xmlns:xlink="http://www.w3.org/1999/xlink">
    <!-- Generator: Sketch 51.3 (57544) - http://www.bohemiancoding.com/sketch -->
    <title>i-20x20-Branch</title>
    <desc>Created with Sketch.</desc>
    <defs>
        <linearGradient x1="91.2310135%" y1="77.3663469%" x2="-26.4535854%" y2="-20.1677133%" id="linearGradient-1">
            <stop stop-color="#3023AE" offset="0%"></stop>
            <stop stop-color="#C86DD7" offset="100%"></stop>
        </linearGradient>
        <linearGradient x1="0%" y1="0%" x2="101.999998%" y2="100.999999%" id="linearGradient-2">
            <stop stop-color="#3023AE" offset="0%"></stop>
            <stop stop-color="#C86DD7" offset="100%"></stop>
        </linearGradient>
    </defs>
    <g id="i-20x20-Branch" stroke="none" stroke-width="1" fill="none" fill-rule="evenodd">
        <g id="Page-1" transform="translate(5.000000, 4.583333)">
            <polygon id="Combined-Shape" fill="#9E64CF" points="4.443625 1.467125 4.443625 0.219583333 7.146125 1.78 4.443625 3.34041667 4.443625 2.09295833 2.755 2.09295833 2.755 1.467125"></polygon>
            <g id="Group-14" transform="translate(0.000000, 3.926708)" fill="url(#linearGradient-1)">
                <path d="M4.40870833,5.18194594 L4.40870833,3.93420833 L7.11120833,5.494625 L4.40870833,7.05504167 L4.40870833,5.80754167 L3.13433333,5.80754167 C3.11558333,5.808375 3.07475,5.809625 3.016,5.809625 C2.64766667,5.809625 1.58516667,5.759625 1.006,5.22129167 C0.0593333333,4.34295833 0.125583333,3.293375 0.128916667,3.24920833 L0.127666667,0.328791667 L0.753916667,0.328791667 L0.753916667,3.272125 C0.751,3.32545833 0.7135,4.09629167 1.43183333,4.76254167 C1.841,5.14295833 2.79266667,5.19545833 3.12266667,5.182125 L4.40870833,5.18194594 Z" id="Combined-Shape"></path>
            </g>
        </g>
        <path d="M4.16666667,3.33333333 L7.08333333,3.33333333 C7.54357062,3.33333333 7.91666667,3.70642938 7.91666667,4.16666667 L7.91666667,8.33333333 C7.91666667,8.79357062 7.54357062,9.16666667 7.08333333,9.16666667 L4.16666667,9.16666667 C3.70642938,9.16666667 3.33333333,8.79357062 3.33333333,8.33333333 L3.33333333,4.16666667 C3.33333333,3.70642938 3.70642938,3.33333333 4.16666667,3.33333333 Z" id="Rectangle-24-Copy-4" fill="url(#linearGradient-2)" fill-rule="nonzero" opacity="0.9"></path>
        <path d="M12.9166667,11.25 L15.8333333,11.25 C16.2935706,11.25 16.6666667,11.623096 16.6666667,12.0833333 L16.6666667,16.25 C16.6666667,16.7102373 16.2935706,17.0833333 15.8333333,17.0833333 L12.9166667,17.0833333 C12.4564294,17.0833333 12.0833333,16.7102373 12.0833333,16.25 L12.0833333,12.0833333 C12.0833333,11.623096 12.4564294,11.25 12.9166667,11.25 Z" id="Rectangle-24-Copy" fill-opacity="0.9" fill="url(#linearGradient-2)" fill-rule="nonzero" opacity="0.9"></path>
        <path d="M12.9166667,3.33333333 L15.8333333,3.33333333 C16.2935706,3.33333333 16.6666667,3.70642938 16.6666667,4.16666667 L16.6666667,8.33333333 C16.6666667,8.79357062 16.2935706,9.16666667 15.8333333,9.16666667 L12.9166667,9.16666667 C12.4564294,9.16666667 12.0833333,8.79357062 12.0833333,8.33333333 L12.0833333,4.16666667 C12.0833333,3.70642938 12.4564294,3.33333333 12.9166667,3.33333333 Z" id="Rectangle-24" fill="url(#linearGradient-2)" fill-rule="nonzero" opacity="0.5"></path>
    </g>
</svg>