<svg width="16" height="16" viewBox="0 0 16 16" fill="none" xmlns="http://www.w3.org/2000/svg">
<path d="M13.1051 1.74707H2.89607C2.2615 1.74707 1.74707 2.2615 1.74707 2.89607V13.1051C1.74707 13.7396 2.2615 14.2541 2.89607 14.2541H13.1051C13.7396 14.2541 14.2541 13.7396 14.2541 13.1051V2.89607C14.2541 2.2615 13.7396 1.74707 13.1051 1.74707Z" fill="#42E8CA"/>
<path d="M13.1051 9.19507H2.89607C2.2615 9.19507 1.74707 9.70949 1.74707 10.3441V13.1041C1.74707 13.7386 2.2615 14.2531 2.89607 14.2531H13.1051C13.7396 14.2531 14.2541 13.7386 14.2541 13.1041V10.3441C14.2541 9.70949 13.7396 9.19507 13.1051 9.19507Z" fill="url(#paint0_linear)"/>
<path d="M7.3673 1.74707V6.03407C7.3673 6.05407 7.3853 6.06707 7.3893 6.08707H7.1843H6.5593C6.2473 6.08707 6.1963 6.18707 6.4073 6.39907L7.8003 7.91507C7.81456 7.93628 7.8329 7.95445 7.85424 7.96852C7.87559 7.98259 7.89951 7.99228 7.92463 7.99702C7.94975 8.00177 7.97556 8.00147 8.00057 7.99616C8.02558 7.99085 8.04928 7.98062 8.0703 7.96607C8.0904 7.95248 8.10771 7.93517 8.1213 7.91507L9.6213 6.37007C9.7903 6.20107 9.7313 6.05707 9.4693 6.05707H8.8003H8.6253C8.6253 6.04607 8.6363 6.04007 8.6363 6.03007V1.74707" fill="#258277"/>
<defs>
<linearGradient id="paint0_linear" x1="8.00007" y1="13.2711" x2="8.00007" y2="4.20007" gradientUnits="userSpaceOnUse">
<stop stop-color="#258277"/>
<stop offset="1" stop-color="#37C2B1"/>
</linearGradient>
</defs>
</svg>
