<?xml version="1.0" encoding="UTF-8"?>
<svg width="20px" height="20px" viewBox="0 0 20 20" version="1.1" xmlns="http://www.w3.org/2000/svg" xmlns:xlink="http://www.w3.org/1999/xlink">
    <!-- Generator: Sketch 51.3 (57544) - http://www.bohemiancoding.com/sketch -->
    <title>i-20x20-Lookup</title>
    <desc>Created with Sketch.</desc>
    <defs>
        <linearGradient x1="0%" y1="0%" x2="101.999998%" y2="100.999999%" id="linearGradient-1">
            <stop stop-color="#3023AE" offset="0%"></stop>
            <stop stop-color="#C86DD7" offset="100%"></stop>
        </linearGradient>
    </defs>
    <g id="i-20x20-Lookup" stroke="none" stroke-width="1" fill="none" fill-rule="evenodd">
        <path d="M3.33333333,2.91666667 L16.25,2.91666667 C16.7102373,2.91666667 17.0833333,3.28976271 17.0833333,3.75 L17.0833333,16.25 C17.0833333,16.7102373 16.7102373,17.0833333 16.25,17.0833333 L3.33333333,17.0833333 C2.87309604,17.0833333 2.5,16.7102373 2.5,16.25 L2.5,3.75 C2.5,3.28976271 2.87309604,2.91666667 3.33333333,2.91666667 Z" id="Rectangle-25" fill="url(#linearGradient-1)" fill-rule="nonzero" opacity="0.7"></path>
        <path d="M3.33333333,2.91666667 L16.25,2.91666667 C16.7102373,2.91666667 17.0833333,3.28976271 17.0833333,3.75 L17.0833333,16.25 C17.0833333,16.7102373 16.7102373,17.0833333 16.25,17.0833333 L3.33333333,17.0833333 C2.87309604,17.0833333 2.5,16.7102373 2.5,16.25 L2.5,3.75 C2.5,3.28976271 2.87309604,2.91666667 3.33333333,2.91666667 Z M12.9166667,5.83333333 L12.9166667,16.25 L15.8333333,16.25 L15.8333333,5.83333333 L12.9166667,5.83333333 Z M7.91666667,5.83333333 L7.91666667,16.25 L11.6666667,16.25 L11.6666667,5.83333333 L7.91666667,5.83333333 Z M3.75,5.83333333 L3.75,16.25 L6.66666667,16.25 L6.66666667,5.83333333 L3.75,5.83333333 Z" id="Combined-Shape" fill="url(#linearGradient-1)" fill-rule="nonzero"></path>
        <path d="M7.36584962,9.46394252 L4.32979214,12.5 L3.75,11.9202079 L6.79614578,8.87406208 C6.35358085,8.28925192 6.10293119,7.56748774 6.10267879,6.80998543 C6.1020491,4.92017236 7.6335348,3.3876657 9.52334787,3.38703597 C11.4131609,3.38640624 12.9456676,4.91789192 12.9462974,6.80770499 C12.9467048,8.03019973 12.294888,9.16004878 11.2363802,9.77164895 C10.1778724,10.3832491 8.87348606,10.3836838 7.81457088,9.77278917 C7.65555648,9.6810528 7.50570525,9.57762369 7.36584962,9.46394252 Z M6.93670755,6.80970753 C6.9370156,7.73423249 7.43052845,8.58836443 8.23134459,9.05036012 C9.03216072,9.5123558 10.0186171,9.5120271 10.8191252,9.04949781 C11.6196332,8.58696853 12.1125767,7.73250788 12.1122686,6.80798292 C12.1117924,5.37879121 10.9528175,4.2205885 9.52362579,4.22106473 C8.09443408,4.22154097 6.93623134,5.38051582 6.93670755,6.80970753 Z" id="Combined-Shape" fill="#FFFFFF" fill-rule="nonzero" opacity="0.756417411"></path>
        <polygon id="Line-2" fill="#FFFFFF" fill-rule="nonzero" opacity="0.658761161" points="3.95833333 13.470178 2.77982203 12.2916667 5.27982192 9.79166678 6.45833322 10.9701781"></polygon>
        <path d="M7.48809524,6.80952381 C7.48833765,7.53705692 7.87669595,8.2091959 8.50687931,8.57275251 C9.13706268,8.93630911 9.91333126,8.93605044 10.5432722,8.57207393 C11.1732131,8.20809743 11.5611234,7.53569977 11.560881,6.80816667 C11.5605062,5.68349796 10.6484782,4.77207766 9.52380952,4.77245242 C8.39914082,4.77282719 7.4877205,5.68485511 7.48809524,6.80952381 Z" id="Path" fill="#FFFFFF" fill-rule="nonzero" opacity="0.3"></path>
    </g>
</svg>