<svg width="20" height="20" viewBox="0 0 20 20" fill="none" xmlns="http://www.w3.org/2000/svg">
<path d="M16.3801 2.18262H3.61887C2.82565 2.18262 2.18262 2.82565 2.18262 3.61887V16.3801C2.18262 17.1733 2.82565 17.8164 3.61887 17.8164H16.3801C17.1733 17.8164 17.8164 17.1733 17.8164 16.3801V3.61887C17.8164 2.82565 17.1733 2.18262 16.3801 2.18262Z" fill="url(#paint0_linear)"/>
<path d="M6.77504 7.91016H4.32129C4.11418 7.91016 3.94629 8.07805 3.94629 8.28516V15.4539C3.94629 15.661 4.11418 15.8289 4.32129 15.8289H6.77504C6.98215 15.8289 7.15004 15.661 7.15004 15.4539V8.28516C7.15004 8.07805 6.98215 7.91016 6.77504 7.91016Z" fill="#B4EC36"/>
<path d="M11.2277 4.49634H8.77393C8.56682 4.49634 8.39893 4.66423 8.39893 4.87134V15.4538C8.39893 15.6609 8.56682 15.8288 8.77393 15.8288H11.2277C11.4348 15.8288 11.6027 15.6609 11.6027 15.4538V4.87134C11.6027 4.66423 11.4348 4.49634 11.2277 4.49634Z" fill="white"/>
<path d="M15.6788 11.175H13.2251C13.018 11.175 12.8501 11.3429 12.8501 11.55V15.4538C12.8501 15.6609 13.018 15.8288 13.2251 15.8288H15.6788C15.886 15.8288 16.0538 15.6609 16.0538 15.4538V11.55C16.0538 11.3429 15.886 11.175 15.6788 11.175Z" fill="#B4EC36"/>
<defs>
<linearGradient id="paint0_linear" x1="10.0001" y1="17.8176" x2="10.0001" y2="2.18262" gradientUnits="userSpaceOnUse">
<stop stop-color="#5E9624"/>
<stop offset="0.881" stop-color="#86D633"/>
</linearGradient>
</defs>
</svg>
