<svg width="16" height="16" viewBox="0 0 16 16" fill="none" xmlns="http://www.w3.org/2000/svg">
<g clip-path="url(#clip0_29154_81847)">
<path d="M12.239 0.928009H2.56599C2.3285 0.928009 2.13599 1.12053 2.13599 1.35801V13.396C2.13599 13.6335 2.3285 13.826 2.56599 13.826H12.239C12.4765 13.826 12.669 13.6335 12.669 13.396V1.35801C12.669 1.12053 12.4765 0.928009 12.239 0.928009Z" fill="url(#paint0_linear_29154_81847)"/>
<path d="M15.57 2.17502H5.89704C5.65956 2.17502 5.46704 2.36754 5.46704 2.60502V14.643C5.46704 14.8805 5.65956 15.073 5.89704 15.073H15.57C15.8075 15.073 16 14.8805 16 14.643V2.60502C16 2.36754 15.8075 2.17502 15.57 2.17502Z" fill="url(#paint1_linear_29154_81847)"/>
<path d="M15.2199 2.854H6.24789C6.18825 2.854 6.13989 2.90236 6.13989 2.962V14.286C6.13989 14.3457 6.18825 14.394 6.24789 14.394H15.2199C15.2795 14.394 15.3279 14.3457 15.3279 14.286V2.962C15.3279 2.90236 15.2795 2.854 15.2199 2.854Z" fill="white"/>
<path d="M8.4109 7.76402H7.5109C7.49655 7.76442 7.48227 7.76195 7.46888 7.75677C7.4555 7.75158 7.44328 7.74378 7.43294 7.73381C7.42261 7.72385 7.41436 7.71193 7.40869 7.69874C7.40302 7.68556 7.40003 7.67137 7.3999 7.65702V6.75702C7.3999 6.72837 7.41128 6.7009 7.43153 6.68065C7.45179 6.6604 7.47926 6.64902 7.5079 6.64902H8.4079C8.43628 6.64902 8.4635 6.66029 8.48356 6.68036C8.50363 6.70042 8.5149 6.72764 8.5149 6.75602V7.65602C8.516 7.6838 8.50612 7.71091 8.48742 7.73149C8.46871 7.75206 8.44267 7.76446 8.4149 7.76602L8.4109 7.76402ZM14.0689 7.65702V6.75702C14.069 6.74288 14.0664 6.72886 14.061 6.71576C14.0557 6.70267 14.0479 6.69075 14.0379 6.68071C14.028 6.67067 14.0161 6.6627 14.0031 6.65726C13.99 6.65182 13.976 6.64902 13.9619 6.64902H9.4999C9.47152 6.64902 9.44431 6.66029 9.42424 6.68036C9.40418 6.70042 9.3929 6.72764 9.3929 6.75602V7.65602C9.39277 7.67007 9.39541 7.68401 9.40066 7.69704C9.40592 7.71007 9.41369 7.72194 9.42353 7.73197C9.43338 7.742 9.4451 7.74999 9.45803 7.75549C9.47096 7.76099 9.48485 7.76389 9.4989 7.76402H13.9609C13.975 7.76402 13.989 7.76122 14.0021 7.75578C14.0151 7.75034 14.027 7.74237 14.0369 7.73233C14.0469 7.72228 14.0547 7.71037 14.06 7.69727C14.0654 7.68417 14.068 7.67015 14.0679 7.65602L14.0689 7.65702ZM14.0689 9.89702V9.00002C14.0689 8.97164 14.0576 8.94442 14.0376 8.92436C14.0175 8.90429 13.9903 8.89302 13.9619 8.89302H9.4999C9.4856 8.89262 9.47136 8.89509 9.45803 8.90028C9.4447 8.90548 9.43255 8.9133 9.4223 8.92328C9.41204 8.93325 9.40389 8.94518 9.39832 8.95837C9.39276 8.97155 9.3899 8.98571 9.3899 9.00002V9.90002C9.38977 9.91407 9.39241 9.92801 9.39766 9.94104C9.40292 9.95407 9.41069 9.96594 9.42053 9.97597C9.43038 9.986 9.4421 9.99399 9.45503 9.99949C9.46796 10.005 9.48185 10.0079 9.4959 10.008H13.9579C13.9864 10.0078 14.0136 9.99626 14.0336 9.97603C14.0537 9.95581 14.0649 9.92849 14.0649 9.90002L14.0689 9.89702ZM8.5179 12.14V11.24C8.51803 11.226 8.5154 11.212 8.51014 11.199C8.50489 11.186 8.49711 11.1741 8.48727 11.1641C8.47743 11.154 8.46571 11.146 8.45277 11.1405C8.43984 11.135 8.42595 11.1321 8.4119 11.132H7.5119C7.48334 11.1323 7.45602 11.1437 7.43582 11.1639C7.41563 11.1841 7.40416 11.2115 7.4039 11.24V12.14C7.40417 12.1685 7.41566 12.1957 7.43589 12.2157C7.45611 12.2358 7.48343 12.247 7.5119 12.247H8.4119C8.44028 12.247 8.4675 12.2357 8.48756 12.2157C8.50763 12.1956 8.5189 12.1684 8.5189 12.14H8.5179ZM14.0649 12.14V11.24C14.0649 11.2115 14.0537 11.1842 14.0336 11.164C14.0136 11.1438 13.9864 11.1323 13.9579 11.132H9.4999C9.47152 11.132 9.44431 11.1433 9.42424 11.1634C9.40418 11.1834 9.3929 11.2106 9.3929 11.239V12.139C9.39277 12.153 9.39541 12.1669 9.40068 12.1799C9.40595 12.1929 9.41374 12.2047 9.42359 12.2146C9.43345 12.2246 9.44518 12.2325 9.45811 12.2379C9.47103 12.2432 9.4849 12.246 9.4989 12.246H13.9609C13.9893 12.246 14.0165 12.2347 14.0366 12.2147C14.0566 12.1946 14.0679 12.1674 14.0679 12.139L14.0649 12.14Z" fill="#76BC2D"/>
<path d="M0.0878906 3.889H5.33189V3.141C5.3318 2.91404 5.39952 2.69222 5.52636 2.50401C5.65321 2.3158 5.83339 2.16977 6.04379 2.08467C6.25419 1.99956 6.48522 1.97925 6.70725 2.02635C6.92927 2.07345 7.13216 2.1858 7.28989 2.349L9.88989 4.949C10.1364 5.19328 10.2759 5.52539 10.2778 5.87243C10.2797 6.21947 10.1437 6.55307 9.89989 6.8L7.27589 9.421C7.11709 9.58032 6.91463 9.68901 6.6941 9.73333C6.47356 9.77765 6.24483 9.75561 6.03681 9.67001C5.82879 9.5844 5.6508 9.43907 5.52534 9.25236C5.39987 9.06565 5.33256 8.84595 5.33189 8.621V7.869H0.0878906V3.889Z" fill="white"/>
<path d="M6.56999 3.042L9.18499 5.657C9.24343 5.71551 9.27625 5.79481 9.27625 5.8775C9.27625 5.96019 9.24343 6.0395 9.18499 6.098L6.56999 8.714C6.55048 8.7338 6.5255 8.7473 6.49825 8.75275C6.471 8.75821 6.44274 8.75537 6.41712 8.7446C6.3915 8.73384 6.3697 8.71564 6.35452 8.69236C6.33935 8.66908 6.3315 8.64179 6.33199 8.614V7.008C6.33199 6.97087 6.31724 6.93526 6.29098 6.90901C6.26473 6.88275 6.22912 6.868 6.19199 6.868H0.745986C0.716813 6.868 0.688834 6.85641 0.668205 6.83579C0.647576 6.81516 0.635986 6.78718 0.635986 6.758V5C0.635986 4.98556 0.638832 4.97125 0.64436 4.95791C0.649888 4.94456 0.65799 4.93244 0.668205 4.92222C0.678419 4.91201 0.690545 4.9039 0.703891 4.89838C0.717237 4.89285 0.731541 4.89 0.745986 4.89H6.19199C6.2286 4.89001 6.26376 4.87567 6.28994 4.85007C6.31611 4.82446 6.3312 4.78961 6.33199 4.753V3.14C6.33172 3.12163 6.33512 3.10339 6.342 3.08635C6.34888 3.06931 6.35909 3.05381 6.37204 3.04077C6.38499 3.02773 6.40041 3.01741 6.4174 3.01041C6.43439 3.00341 6.45261 2.99987 6.47099 3C6.50819 3.00059 6.54371 3.01566 6.56999 3.042Z" fill="url(#paint2_linear_29154_81847)"/>
</g>
<defs>
<linearGradient id="paint0_linear_29154_81847" x1="7.40199" y1="13.825" x2="7.40199" y2="0.928009" gradientUnits="userSpaceOnUse">
<stop stop-color="#365615"/>
<stop offset="0.539" stop-color="#5E9624"/>
<stop offset="1" stop-color="#76BC2D"/>
</linearGradient>
<linearGradient id="paint1_linear_29154_81847" x1="10.733" y1="2.17502" x2="10.733" y2="15.072" gradientUnits="userSpaceOnUse">
<stop offset="0.18" stop-color="#86D633"/>
<stop offset="1" stop-color="#5E9624"/>
</linearGradient>
<linearGradient id="paint2_linear_29154_81847" x1="0.635986" y1="5.878" x2="9.27699" y2="5.878" gradientUnits="userSpaceOnUse">
<stop stop-color="#365615"/>
<stop offset="0.562" stop-color="#5E9624"/>
<stop offset="1" stop-color="#76BC2D"/>
</linearGradient>
<clipPath id="clip0_29154_81847">
<rect width="16" height="16" fill="white"/>
</clipPath>
</defs>
</svg>
