<svg xmlns="http://www.w3.org/2000/svg" viewBox="0 0 64 64"><title>SharePoint_64x</title><circle cx="29.92593" cy="20.59259" r="15.55556" fill="#036c70"/><circle cx="45.48148" cy="35.11111" r="13.48148" fill="#1a9ba1"/><circle cx="32" cy="46.51852" r="11.40741" fill="#37c6d0"/><path d="M33,20.33008V46.66992a1.73444,1.73444,0,0,1-.04.3999A2.31378,2.31378,0,0,1,30.66992,49H20.85986c-.06982-.33008-.12988-.66016-.16992-1a8.2529,8.2529,0,0,1-.08984-1c-.01026-.16016-.01026-.31982-.01026-.48a11.41245,11.41245,0,0,1,7.04-10.54A15.56512,15.56512,0,0,1,14.37012,20.58984,14.77,14.77,0,0,1,14.58984,18H30.66992A2.326,2.326,0,0,1,33,20.33008Z" opacity="0.2"/><path d="M34,20.33008V44.66992A3.36171,3.36171,0,0,1,30.66992,48h-9.98a8.2529,8.2529,0,0,1-.08984-1c-.01026-.16016-.01026-.31982-.01026-.48a11.41245,11.41245,0,0,1,7.04-10.54A15.56512,15.56512,0,0,1,14.37012,20.58984,14.77,14.77,0,0,1,14.58984,18c.0503-.33984.12012-.66992.2002-1H30.66992A3.34177,3.34177,0,0,1,34,20.33008Z" opacity="0.1"/><path d="M33,20.33008V44.66992A2.326,2.326,0,0,1,30.66992,47H20.6001c-.01026-.16016-.01026-.31982-.01026-.48a11.41245,11.41245,0,0,1,7.04-10.54A15.56512,15.56512,0,0,1,14.37012,20.58984,14.77,14.77,0,0,1,14.58984,18H30.66992A2.326,2.326,0,0,1,33,20.33008Z" opacity="0.2"/><path d="M32,20.33008V44.66992A2.326,2.326,0,0,1,29.66992,47H20.6001c-.01026-.16016-.01026-.31982-.01026-.48a11.41245,11.41245,0,0,1,7.04-10.54A15.56512,15.56512,0,0,1,14.37012,20.58984,14.77,14.77,0,0,1,14.58984,18H29.66992A2.326,2.326,0,0,1,32,20.33008Z" opacity="0.1"/><rect x="4" y="18" width="28" height="28" rx="2.33333" fill="#038387"/><path d="M14.36934,32.09058a4.0149,4.0149,0,0,1-1.24769-1.31929,3.5814,3.5814,0,0,1-.43465-1.80506,3.47358,3.47358,0,0,1,.80793-2.33688,4.76785,4.76785,0,0,1,2.14768-1.4011,9.07767,9.07767,0,0,1,2.93515-.4551,11.15152,11.15152,0,0,1,3.86581.542v2.73061a6.03958,6.03958,0,0,0-1.74882-.71589,8.48545,8.48545,0,0,0-2.0454-.24545,4.43287,4.43287,0,0,0-2.10165.44488,1.38042,1.38042,0,0,0-.8335,1.263,1.28,1.28,0,0,0,.35283.89486,3.21515,3.21515,0,0,0,.95111.6801q.59827.29673,1.78462.78748a1.84916,1.84916,0,0,1,.25567.10227,14.71917,14.71917,0,0,1,2.24994,1.10963,4.0269,4.0269,0,0,1,1.32952,1.33974,3.87814,3.87814,0,0,1,.48067,2.01983,3.76265,3.76265,0,0,1-.7568,2.434,4.23,4.23,0,0,1-2.025,1.3602,9.17176,9.17176,0,0,1-2.884.4193,15.21312,15.21312,0,0,1-2.613-.21476,8.96767,8.96767,0,0,1-2.12211-.61362v-2.884a6.8304,6.8304,0,0,0,2.14767,1.0227,8.36478,8.36478,0,0,0,2.36244.3784,4.06328,4.06328,0,0,0,2.14256-.4551,1.43665,1.43665,0,0,0,.721-1.28349,1.37042,1.37042,0,0,0-.404-.9818,4.09733,4.09733,0,0,0-1.11474-.77725Q17.86173,33.773,16.471,33.19A11.94746,11.94746,0,0,1,14.36934,32.09058Z" fill="#fff"/></svg>