<?xml version="1.0" encoding="utf-8"?>
<!-- Generator: Adobe Illustrator 22.0.1, SVG Export Plug-In . SVG Version: 6.00 Build 0)  -->
<svg version="1.1" id="logo" xmlns="http://www.w3.org/2000/svg" xmlns:xlink="http://www.w3.org/1999/xlink" x="0px" y="0px"
	 viewBox="0 0 64 64" style="enable-background:new 0 0 64 64;" xml:space="preserve">
<style type="text/css">
	.st0{fill:#FFFFFF;}
	.st1{fill:none;}
	.st2{fill:#2172B9;}
</style>
<g>
	<rect x="35.4" y="15.1" class="st0" width="25.2" height="34.5"/>
	<path class="st1" d="M35.9,18.3h2.3c0.5,0,0.7,0.2,0.9,0.5c0.3,0.3,3,2.8,3,2.8c0.1,0.1,0.1,0.3,0,0.5l-1.3,1.8
		c-0.2,0.2-0.2,0.2-0.3,0l-1.6-1.5c-0.1-0.1-0.4-0.2-0.5-0.2h-2.4v7.2c2.2,2.2,5.2,5.1,5.2,5.1c0.1,0.1,0.1,0.3,0,0.3l-0.3,0.3
		c-0.1,0-0.3,0.2-0.3,0.2c-0.2-0.1-1.3-0.7-2.3-1.2c-0.7-0.4-1.4-0.9-2.2-1.4v9.9h1.2c0.2,0,0.7,0,0.8-0.2c0.9-0.7,7.6-7.7,7.6-7.7
		c0.1-0.1,0.3-0.1,0.3,0l0.3,0.3c0.1,0.1,0.2,0.3,0.2,0.3c-0.1,0.2-0.7,1.3-1.2,2.3c-1.3,2.2-3.6,5.3-5.1,7.2
		c-1,1.1-1.5,1.6-2.1,1.6h-2v2.6H60V15.7H35.9V18.3z M57.5,45.4c0,0.6-0.4,1-1,1h-7.8c-0.5,0-0.7-0.2-0.9-0.5c-0.2-0.2-3-2.8-3-2.8
		c-0.1-0.1-0.1-0.4,0-0.5l1.3-1.8c0.2-0.2,0.2-0.2,0.3,0l1.6,1.6c0.1,0.1,0.4,0.2,0.5,0.2h4.8c0.2,0,0.3-0.2,0.3-0.3v-3.6
		c0-0.2,0-0.7-0.2-0.8c-0.7-0.8-7.6-7.6-7.6-7.6c-0.1-0.1-0.1-0.3,0-0.3l0.3-0.3c0.1-0.1,0.3-0.2,0.3-0.2c0.2,0.1,1.3,0.7,2.3,1.2
		c2.2,1.3,5.3,3.6,7.2,5.1c1.1,0.9,1.6,1.5,1.6,2.1L57.5,45.4L57.5,45.4L57.5,45.4z M49,18.3h7.5c0.6,0,1,0.4,1,1v7.8
		c0,0.5-0.2,0.7-0.5,0.9c-0.3,0.3-2.8,3-2.8,3c-0.1,0.1-0.3,0.1-0.5,0l-1.8-1.3c-0.2-0.2-0.2-0.2,0-0.3l1.6-1.6
		c0.1-0.1,0.2-0.4,0.2-0.5v-4.8c0-0.2-0.2-0.3-0.3-0.3h-3.5c-0.2,0-0.7,0-0.8,0.2c-0.9,0.8-7.6,7.8-7.6,7.8c-0.1,0.1-0.3,0.1-0.3,0
		l-0.3-0.3c-0.1-0.1-0.2-0.3-0.2-0.3c0.1-0.2,0.7-1.3,1.2-2.3c1.3-2.2,3.6-5.3,5.1-7.2C47.9,18.8,48.4,18.3,49,18.3z"/>
	<line class="st1" x1="60.2" y1="13.7" x2="60.1" y2="13.7"/>
	<path class="st2" d="M60.1,13.7H35.9V3.3L2,9.1v45.8l34,5.9V51h24.2c1.1,0,1.8-0.9,1.8-2V15.7C62,14.6,61.1,13.7,60.1,13.7z M60,49
		H35.9v-2.6h2c0.7,0,1.2-0.5,2.1-1.6c1.6-1.8,3.9-4.9,5.1-7.2c0.6-1,1.2-2.1,1.2-2.3c0-0.1-0.2-0.3-0.2-0.3l-0.3-0.3
		c-0.1-0.1-0.3-0.1-0.3,0c0,0-6.8,6.9-7.6,7.6c-0.2,0.2-0.7,0.2-0.9,0.2h-1.2v-9.9c0.8,0.5,1.6,1.1,2.2,1.4c1.1,0.6,2.2,1.2,2.3,1.2
		c0.1,0,0.3-0.2,0.3-0.2l0.3-0.3c0.1-0.1,0.1-0.3,0-0.3c0,0-3-2.9-5.2-5.1v-7.1h2.5c0.2,0,0.4,0.1,0.5,0.2l1.6,1.6
		c0.2,0.2,0.3,0.2,0.3,0l1.3-1.8c0.1-0.2,0.1-0.4,0-0.5c0,0-2.8-2.6-3-2.8c-0.3-0.2-0.4-0.5-0.9-0.5h-2.3v-2.6H60L60,49L60,49z"/>
	<path class="st2" d="M55.9,35.8c-1.8-1.6-4.9-3.9-7.2-5.1c-1-0.6-2.1-1.2-2.3-1.2c-0.1,0-0.3,0.2-0.3,0.2l-0.3,0.3
		c-0.1,0.1-0.1,0.3,0,0.3c0,0,6.9,6.8,7.6,7.6c0.2,0.2,0.2,0.6,0.2,0.8v3.5c0,0.2-0.2,0.3-0.3,0.3h-4.8c-0.2,0-0.4-0.1-0.5-0.2
		l-1.6-1.6c-0.2-0.2-0.3-0.2-0.3,0l-1.3,1.8c-0.1,0.2-0.1,0.4,0,0.5c0,0,2.8,2.6,3,2.8c0.3,0.2,0.5,0.5,0.9,0.5h7.8c0.6,0,1-0.4,1-1
		v-7.4C57.5,37.3,57,36.7,55.9,35.8z"/>
	<path class="st2" d="M40.5,29.4c0,0.1,0.2,0.3,0.2,0.3L41,30c0.1,0.1,0.3,0.1,0.3,0c0,0,6.8-6.9,7.6-7.6c0.2-0.2,0.7-0.2,0.9-0.2
		h3.5c0.2,0,0.3,0.2,0.3,0.3v4.8c0,0.2-0.1,0.4-0.2,0.5l-1.6,1.6c-0.2,0.2-0.2,0.3,0,0.3l1.8,1.3c0.2,0.1,0.4,0.1,0.5,0
		c0,0,2.6-2.8,2.8-3c0.2-0.3,0.5-0.4,0.5-0.9v-7.8c0-0.6-0.4-1-1-1H49c-0.7,0-1.2,0.5-2.1,1.6c-1.6,1.8-3.9,4.9-5.1,7.2
		C41.2,28.1,40.6,29.3,40.5,29.4z"/>
	<path class="st0" d="M22.9,42.5l-9.2-0.8V22.2l8.5-0.7v3.9L17,25.5V30l5.1,0.1v3.8L17,33.7v4.5l5.9,0.5V42.5z"/>
</g>
</svg>
