<svg xmlns="http://www.w3.org/2000/svg" viewBox="0 0 64 64"><title>Yammer_64x</title><path d="M41.20105,56.65989a.38061.38061,0,0,1-.27014-.11206L23.64014,39.2844a.44251.44251,0,0,1-.10547-.29126.48532.48532,0,0,1,.11658-.29053,11.33205,11.33205,0,0,0-.01734-13.94067.47646.47646,0,0,1-.11828-.303.45964.45964,0,0,1,.124-.3147l17.25159-17.3a.37341.37341,0,0,1,.26953-.11157.3828.3828,0,0,1,.28308.12378C42.25891,7.737,43.04126,8.67161,43.769,9.635a36.26646,36.26646,0,0,1,6.134,12.55371l.26342,1.07495,6.0691-1.62134a.3912.3912,0,0,1,.10034-.01318.38089.38089,0,0,1,.36938.28906,43.58582,43.58582,0,0,1-.00525,19.6687.38048.38048,0,0,1-.36865.28906H56.3313a.38749.38749,0,0,1-.10095-.01367l-6.01282-1.61621-.25916.9668a36.43641,36.43641,0,0,1-8.47717,15.3247A.37872.37872,0,0,1,41.20105,56.65989Z" fill="#0358a7"/><path d="M57.67908,21.691a1.38,1.38,0,0,0-1.70141-1.01474L24.67776,29.03674a10.42663,10.42663,0,0,1,.00751,5.38074l31.28542,8.4107A1.38005,1.38005,0,0,0,57.674,41.81466a44.59032,44.59032,0,0,0,.005-20.12365Z" fill="#0f78d4"/><path d="M22.91491,23.4549a1.45236,1.45236,0,0,0-.06878,1.92314,10.26034,10.26034,0,0,1,1.83148,3.66052L50.8958,22.03984l-.02645-.109A37.1451,37.1451,0,0,0,44.56683,9.0324q-1.12737-1.49218-2.38889-2.85506a1.38356,1.38356,0,0,0-1.99472-.039Z" fill="#28a8ea"/><path d="M22.93334,39.99235a1.44924,1.44924,0,0,1-.39882-.999,1.47812,1.47812,0,0,1,.34186-.92288,10.34613,10.34613,0,0,0,1.80891-3.653l26.2392,7.054A37.43506,37.43506,0,0,1,42.21437,57.218a1.3826,1.3826,0,0,1-1.99026.03751Z" fill="#0358a7"/><path d="M33,20.32989V46.66973a1.73459,1.73459,0,0,1-.04.39991,2.3234,2.3234,0,0,1-1.25,1.68994L29.9502,46.99981h-.28028a2.23463,2.23463,0,0,0,.26026-.00976l-7-7a1.47637,1.47637,0,0,1-.39991-1,1.45778,1.45778,0,0,1,.34961-.92041,10.22826,10.22826,0,0,0,1.34033-2.31006,10.62482,10.62482,0,0,0,.46973-1.33985,10.41876,10.41876,0,0,0,.34033-2.67968,10.58021,10.58021,0,0,0-.35009-2.7002,8.99789,8.99789,0,0,0-.46-1.32031A9.97526,9.97526,0,0,0,22.8501,25.3797a1.4487,1.4487,0,0,1,.06982-1.91993l5.43994-5.46h2.31006A2.326,2.326,0,0,1,33,20.32989Z" opacity="0.2"/><path d="M34,20.32989V44.66973a3.291,3.291,0,0,1-1.04,2.39991,3.2035,3.2035,0,0,1-2.02978.91015l-.98-.98h-.28028a2.23463,2.23463,0,0,0,.26026-.00976l-7-7a1.47637,1.47637,0,0,1-.39991-1,1.45778,1.45778,0,0,1,.34961-.92041,10.22826,10.22826,0,0,0,1.34033-2.31006,10.62482,10.62482,0,0,0,.46973-1.33985,10.41876,10.41876,0,0,0,.34033-2.67968,10.58021,10.58021,0,0,0-.35009-2.7002,8.99789,8.99789,0,0,0-.46-1.32031A9.97526,9.97526,0,0,0,22.8501,25.3797a1.4487,1.4487,0,0,1,.06982-1.91993l5.43994-5.46,1-1h1.31006A3.34177,3.34177,0,0,1,34,20.32989Z" opacity="0.1"/><path d="M33,20.32989V44.66973a2.326,2.326,0,0,1-2.33008,2.33008h-1a2.23463,2.23463,0,0,0,.26026-.00976l-7-7a1.47637,1.47637,0,0,1-.39991-1,1.45778,1.45778,0,0,1,.34961-.92041,10.22826,10.22826,0,0,0,1.34033-2.31006,10.62482,10.62482,0,0,0,.46973-1.33985,10.41876,10.41876,0,0,0,.34033-2.67968,10.58021,10.58021,0,0,0-.35009-2.7002,8.99789,8.99789,0,0,0-.46-1.32031A9.97526,9.97526,0,0,0,22.8501,25.3797a1.4487,1.4487,0,0,1,.06982-1.91993l5.43994-5.46h2.31006A2.326,2.326,0,0,1,33,20.32989Z" opacity="0.2"/><path d="M32,20.32989V44.66973A2.33017,2.33017,0,0,1,29.93018,46.99l-7-7a1.47637,1.47637,0,0,1-.39991-1,1.45778,1.45778,0,0,1,.34961-.92041,10.22826,10.22826,0,0,0,1.34033-2.31006,10.62482,10.62482,0,0,0,.46973-1.33985,10.41876,10.41876,0,0,0,.34033-2.67968,10.58021,10.58021,0,0,0-.35009-2.7002,8.99789,8.99789,0,0,0-.46-1.32031A9.97526,9.97526,0,0,0,22.8501,25.3797a1.4487,1.4487,0,0,1,.06982-1.91993l5.43994-5.46h1.31006A2.326,2.326,0,0,1,32,20.32989Z" opacity="0.1"/><rect x="4" y="17.99989" width="27.99984" height="27.99984" rx="2.33332" fill="#0f78d4"/><path d="M17.71587,30.80564a5.482,5.482,0,0,1,.364.97829H18.114a4.63957,4.63957,0,0,1,.35264-.95554L21.766,24.61421a1.45055,1.45055,0,0,1,1.28117-.77032h0A1.45056,1.45056,0,0,1,24.305,26.01707L19.74012,33.9623a1.45057,1.45057,0,0,0-.19281.72263v4.02074a1.45056,1.45056,0,0,1-1.45056,1.45056h-.29537a1.45056,1.45056,0,0,1-1.45056-1.45056V34.73235a1.45055,1.45055,0,0,0-.1841-.70724l-4.48061-8.02342a1.45056,1.45056,0,0,1,1.26646-2.1578h.28514a1.45054,1.45054,0,0,1,1.28888.78505Z" fill="#fff"/></svg>