<svg id="Layer_1" data-name="Layer 1" xmlns="http://www.w3.org/2000/svg" viewBox="0 0 50 43"><defs><style>.cls-1{fill:#a0a1a2;}.cls-2{fill:#7a7a7a;}.cls-3{fill:#b8d432;}.cls-4,.cls-5{fill:#fff;}.cls-5{opacity:0.2;isolation:isolate;}</style></defs><title>product-vendor-microsoft-icon-storage</title><path class="cls-1" d="M0,45.1A1.88,1.88,0,0,0,1.8,47H48.1A1.9,1.9,0,0,0,50,45.1V12H0Z" transform="translate(0 -4)"/><path class="cls-2" d="M48.1,4.1H1.8A1.88,1.88,0,0,0,0,6v6H50V6c0-1-.8-1.6-1.9-1.6" transform="translate(0 -4)"/><rect class="cls-3" x="4" y="21.5" width="42" height="7"/><rect class="cls-4" x="4" y="11" width="42" height="7"/><rect class="cls-3" x="4" y="32" width="42" height="7"/><path class="cls-5" d="M2,4A2,2,0,0,0,0,6V44.6a2,2,0,0,0,2,2H4.2L43.6,4Z" transform="translate(0 -4)"/></svg>