<?xml version="1.0" encoding="utf-8"?>
<!-- Generator: Adobe Illustrator 19.2.1, SVG Export Plug-In . SVG Version: 6.00 Build 0)  -->
<svg version="1.1" id="layer" xmlns="http://www.w3.org/2000/svg" xmlns:xlink="http://www.w3.org/1999/xlink" x="0px" y="0px"
	 viewBox="0 0 652 652" style="enable-background:new 0 0 652 652;" xml:space="preserve">
<style type="text/css">
	.st0{fill:#F3CF00;}
	.st1{fill:#231815;}
</style>
<path class="st0" d="M20.4,204.8h600v233.9h-600V204.8z M181.9,329.2v27c0,5.5-3.3,7.8-8.7,6c-2.5-0.8-5-1.6-7.5-2.3
	c-1.6-0.4-3,0.2-3.6,1.8c-0.5,1.6-0.1,3.2,1.5,3.7c3.9,1.4,7.9,3,12,3.5c7.2,0.9,12.5-4.8,12.6-13.1c0.1-17.7,0.1-35.3,0-53
	c0-7.8-3-11.4-10.4-13.6c-22.4-6.8-44.8-13.6-67.2-20.4c-3.9-1.2-7.8-2.5-11.7-3.6c-9.2-2.7-16.4,2.5-16.5,12.1
	c-0.1,12,0,23.9,0,35.9c0,0.9,0,1.9,0.4,2.5c0.7,0.9,1.8,1.8,2.8,1.8c0.9,0,2.2-0.9,2.8-1.8c0.5-0.8,0.4-2,0.4-3.1
	c0-12,0-24.1,0-36.2c0-4.4,3.3-6.9,7.5-5.6c27.1,8.2,54.2,16.4,81.2,24.6c3.1,0.9,4.4,2.8,4.4,6C181.9,310.8,181.9,320,181.9,329.2
	 M521.4,321c7.9-3.5,9.8-9.5,9.4-14.4c-0.5-6.1-5.4-10.9-12.6-11.6c-6.8-0.7-13.8-0.3-20.7-0.6c-2.4-0.1-3.1,0.6-3.1,3.1
	c0.1,17,0,34.1,0.1,51.1c0,0.9,0.1,1.7,0.1,2.6c0.5,0.1,0.8,0.3,1.1,0.3c6.1,0,12.2,0.1,18.3,0c2.6-0.1,5.4-0.6,7.9-1.4
	c7-2.3,11.7-8.7,11.4-15.3C533.2,327.4,529.2,322.9,521.4,321 M362.8,322.3c2.1,7.8,4,14.9,5.9,21.9c1.9,7.2,1.9,7.1,9.5,7.2
	c2.1,0,2.8-0.8,3.3-2.6c2.6-9,5.3-18.1,7.9-27.1c1-3.6,2.1-7.1,3.3-11.1c-2.5,0-4.6,0.1-6.6-0.1c-2.1-0.2-2.9,0.5-3.4,2.6
	c-2.2,9.4-4.6,18.8-7,28.5c-2.1-8.4-4-16.4-6-24.4c-1.7-7-1.8-7-9-6.5c-0.7,0.1-1.8,0.9-2.1,1.6c-1.3,4.2-2.5,8.3-3.7,12.6
	c-1.5,5.1-2.9,10.2-4.4,15.4c-0.7-1-1-1.9-1.2-2.8c-2.1-8.3-4.2-16.6-6.3-24.8c-0.2-0.7-1-1.9-1.5-1.9c-2.9-0.2-5.7-0.1-8.8-0.1
	c0.2,1,0.3,1.7,0.5,2.3c3.1,10.7,6.2,21.4,9.4,32.1c1.9,6.5,2,6.4,8.9,6.4c2.3,0,3.1-0.7,3.7-2.9C357.6,340,360.1,331.5,362.8,322.3
	 M246.1,351.4c2.6,0,5-0.2,7.3,0c2.1,0.2,2.7-0.5,2.7-2.6c-0.1-5.1,0-10.1-0.1-15.2c0-1.9,0.6-2.6,2.5-2.6c3.9-0.1,7.9-0.1,11.7-0.9
	c8.6-1.8,14.4-9.7,14.2-18.6c-0.3-9.1-5.8-15.5-15.3-16.5c-6.6-0.7-13.2-0.3-19.9-0.6c-2.5-0.1-3.3,0.7-3.3,3.2
	c0.1,17,0,34.1,0.1,51.1C245.9,349.4,246,350.2,246.1,351.4 M140,341.2v29.9c0,2.6,0.7,4.8,2.8,6.5c2.4,1.8,5,2.1,7.6,0.8
	c3.1-1.4,4.2-4.1,4.2-7.3c0-19.9,0.1-39.9-0.1-59.8c0-1.8-0.8-3.8-1.8-5.3c-1.8-2.5-5.1-3.2-8-2.2c-2.9,1-4.7,3.7-4.7,7.1
	C140,321.1,140,331.1,140,341.2 M307.6,352.3c13.4,0,21.4-8.1,21.4-21.5c0-13.1-7.6-21.2-19.9-21.2c-13.8,0-22.3,8.4-22.2,21.9
	C286.8,344,295,352.3,307.6,352.3 M406.1,333.9h2.9c7.2,0,14.3-0.1,21.5,0c2,0,3-0.6,2.8-2.7c-0.2-2-0.2-4-0.5-6
	c-0.9-6.7-3.9-12.2-10.6-14.5c-7.2-2.5-13.9-1.2-19.7,3.9c-8.6,7.7-8.3,23.1-2.7,30.6c1.8,2.3,4.4,4.5,7,5.6
	c7.1,2.8,14.4,2.1,21.4-0.9c0.7-0.3,1.7-1.2,1.8-2c0.2-2.1,0.1-4.2,0.1-6.4c-0.6,0-0.8-0.1-1,0c-0.3,0.1-0.6,0.3-0.9,0.5
	c-3.9,2.5-8.3,3.2-12.8,2.7C409.8,344.1,405.9,339.8,406.1,333.9 M134.3,341.8c0-7.6,0-15.2,0-22.8c-0.1-4.5-3-7.7-7.1-7.8
	c-4.3-0.1-7.4,2.9-7.4,7.7c-0.1,15.1-0.1,30.2,0,45.3c0,1.9,1,4.1,2.2,5.6c2,2.4,4.9,2.6,7.7,1.5c3.1-1.2,4.6-3.7,4.6-7
	C134.4,356.8,134.3,349.2,134.3,341.8 M113.9,341.4c0-5,0-10,0-14.9c0-4.4-3.2-7.5-7.4-7.4c-4.1,0.1-7,3.1-7,7.5v29.6
	c0,4.3,3.2,7.7,7.2,7.6c4.1-0.1,7.2-3.3,7.2-7.7C114,351.1,114,346.2,113.9,341.4 M553.5,351.2v-3.7c0-9.9,0-19.7,0-29.6
	c0-7.1,0.1-14.1,0-21.2c0-0.8-0.6-2.2-1-2.2c-3-0.2-6-0.1-9-0.1v56.8H553.5z M451.2,351.4v-3.1c0-6.1-0.1-12.2,0-18.3
	c0.1-7.1,4.6-11.8,10.6-11.2c1.1,0.1,2.2,0.5,3.6,0.8c0-2.7,0.1-5.2-0.1-7.7c-0.1-0.6-1.1-1.5-1.8-1.6c-3.8-0.7-7.1,0.2-9.7,3.2
	c-0.9,1-1.6,2.2-2.7,3.8v-6.4h-9.4v40.4c0.7,0.1,1.2,0.1,1.7,0.1C445.8,351.4,448.2,351.4,451.2,351.4 M93.5,341.6v-8.1
	c0-4.2-2.8-7.3-6.8-7.5c-3.7-0.2-7.5,2.9-7.6,6.8c-0.2,5.8-0.2,11.5,0,17.3c0.1,3.9,3.9,7.1,7.5,6.9c4-0.3,6.8-3.3,6.8-7.5V341.6"/>
<path class="st1" d="M181.8,329.2c0-9.2,0-18.3,0-27.5c0-3.2-1.4-5.1-4.4-6c-27.1-8.2-54.1-16.5-81.2-24.6c-4.2-1.3-7.5,1.2-7.5,5.6
	c0,12.1,0,24.1,0,36.2c0,1,0.1,2.3-0.4,3.1c-0.6,0.9-1.8,1.8-2.8,1.8c-0.9,0-2.1-1-2.8-1.8c-0.5-0.6-0.5-1.6-0.5-2.5
	c0-12-0.1-23.9,0-35.9c0.1-9.6,7.3-14.8,16.5-12.1c3.9,1.1,7.8,2.4,11.7,3.6c22.4,6.8,44.8,13.6,67.2,20.4
	c7.4,2.2,10.4,5.8,10.4,13.6c0.1,17.7,0.1,35.3,0,53c0,8.2-5.3,14-12.5,13.1c-4.1-0.5-8.1-2.2-12-3.5c-1.6-0.5-2-2.1-1.5-3.7
	c0.6-1.7,2-2.2,3.6-1.8c2.5,0.7,5,1.4,7.5,2.3c5.3,1.8,8.6-0.5,8.6-6V329.2z"/>
<path class="st1" d="M521.4,321c7.9,2,11.8,6.5,12.1,13.7c0.3,6.5-4.5,13-11.4,15.2c-2.5,0.8-5.3,1.3-7.9,1.4
	c-6.1,0.2-12.2,0.1-18.3,0c-0.3,0-0.7-0.2-1.1-0.3c-0.1-0.9-0.1-1.8-0.1-2.6c0-17,0.1-34.1-0.1-51.1c0-2.5,0.7-3.1,3.1-3
	c6.9,0.3,13.8,0,20.6,0.6c7.2,0.7,12,5.5,12.6,11.6C531.2,311.5,529.2,317.5,521.4,321 M504.4,325.8c0,5.7,0,10.9,0.1,16.1
	c0,0.5,1,1.5,1.5,1.5c3.2,0,6.5,0.1,9.6-0.4c4.4-0.6,7.1-4,7.1-8.3c0-4.4-2.3-7.3-7-8C512.2,326.1,508.5,326,504.4,325.8
	 M504.4,310.2L504.4,310.2c0,2-0.1,4,0.1,6c0,0.6,0.9,1.6,1.4,1.6c2.9,0,5.8,0.1,8.6-0.5c5.4-1.3,7.8-8.4,4.4-12.3
	c-1.9-2.2-10.5-4.2-13.3-2.3c-1.3,0.9-0.8,4.3-1.1,6.6C504.4,309.7,504.4,309.9,504.4,310.2"/>
<path class="st1" d="M362.8,322.3c-2.7,9.2-5.2,17.7-7.6,26.3c-0.6,2.1-1.4,2.9-3.7,2.9c-6.9,0-7,0.2-8.9-6.4
	c-3.2-10.7-6.3-21.4-9.4-32.1c-0.2-0.6-0.3-1.3-0.5-2.3c3.1,0,5.9-0.1,8.8,0.1c0.6,0,1.4,1.2,1.6,1.9c2.2,8.3,4.2,16.5,6.3,24.8
	c0.2,0.9,0.5,1.8,1.2,2.8c1.5-5.1,2.9-10.3,4.4-15.4c1.2-4.2,2.3-8.4,3.7-12.6c0.2-0.7,1.3-1.6,2-1.6c7.3-0.5,7.3-0.5,9.1,6.5
	c2,8,4,16,6,24.4c2.4-9.7,4.8-19,7-28.4c0.5-2,1.3-2.7,3.3-2.6c2.1,0.2,4.1,0,6.6,0c-1.1,4-2.2,7.5-3.3,11.1c-2.7,9-5.4,18-7.9,27.1
	c-0.5,1.8-1.2,2.7-3.3,2.6c-7.6-0.1-7.6,0-9.5-7.2C366.8,337.2,364.9,330.1,362.8,322.3"/>
<path class="st1" d="M246.1,351.4c-0.1-1.2-0.2-2-0.2-2.7c0-17,0-34.1-0.1-51.1c0-2.5,0.8-3.3,3.3-3.2c6.6,0.3,13.3-0.1,19.9,0.6
	c9.5,1,15.1,7.4,15.3,16.5c0.3,8.9-5.6,16.8-14.2,18.6c-3.8,0.8-7.8,0.8-11.7,0.9c-1.9,0.1-2.5,0.7-2.5,2.6c0.1,5.1,0,10.1,0.1,15.2
	c0,2.1-0.6,2.8-2.7,2.6C251,351.2,248.7,351.4,246.1,351.4 M256,323c3.9-0.3,7.5-0.3,10.9-1c4.5-0.9,6.8-4.7,6.8-9.8
	c0-4.9-2.1-8-6.7-8.9c-3.1-0.6-6.4-0.4-9.6-0.4c-0.4,0-1.3,0.9-1.3,1.4C256,310.3,256,316.3,256,323"/>
<path class="st1" d="M140,341.2c0-10.1,0-20.1,0-30.2c0-3.4,1.8-6.1,4.7-7.1c2.9-1.1,6.3-0.4,8,2.1c1,1.5,1.8,3.5,1.8,5.3
	c0.2,19.9,0.1,39.9,0.1,59.7c0,3.2-1.1,5.9-4.2,7.3c-2.7,1.2-5.3,1-7.6-0.8c-2.1-1.6-2.8-3.9-2.8-6.5V341.2z"/>
<path class="st1" d="M307.5,352.3c-12.5,0-20.7-8.2-20.7-20.8c0-13.5,8.5-21.8,22.3-21.9c12.4,0,19.9,8,19.9,21.2
	C329,344.2,321,352.3,307.5,352.3 M319.4,331.3c-0.1,0-0.3-0.1-0.4-0.1c-0.1-1.4-0.1-2.8-0.3-4.2c-0.5-4.5-3.7-8.4-7.6-9.3
	c-5-1.1-9.7,0.5-12.1,4.6c-3.1,5.5-3.1,11.4-0.3,17c1.9,3.8,5.5,5.3,9.6,5.3c4,0,7.4-1.7,9-5.6C318.4,336.6,318.7,333.9,319.4,331.3
	"/>
<path class="st1" d="M406.1,333.9c-0.2,5.9,3.7,10.3,9.3,10.8c4.5,0.5,8.9-0.3,12.8-2.8c0.3-0.2,0.6-0.4,0.9-0.5c0.2,0,0.3,0,1,0
	c0,2.1,0.2,4.3-0.1,6.4c-0.1,0.7-1,1.7-1.8,2c-7,3.1-14.2,3.7-21.4,0.9c-2.7-1-5.3-3.2-7-5.6c-5.7-7.5-6-22.9,2.7-30.6
	c5.8-5.2,12.5-6.4,19.7-4c6.8,2.3,9.7,7.8,10.6,14.6c0.3,2,0.2,4,0.4,6c0.2,2.1-0.7,2.7-2.7,2.7c-7.2-0.1-14.3,0-21.5,0H406.1z
	 M423.5,326.8c0.5-5.7-2.6-9.6-7.7-9.9c-5-0.3-9.7,4.5-9.7,9.9H423.5z"/>
<path class="st1" d="M134.3,341.7c0,7.5,0,15,0,22.5c0,3.2-1.5,5.7-4.6,7c-2.8,1.1-5.7,0.9-7.7-1.5c-1.2-1.5-2.2-3.7-2.2-5.6
	c-0.2-15.1-0.1-30.2,0-45.3c0-4.7,3.1-7.8,7.4-7.7c4.1,0.1,7.1,3.3,7.1,7.8C134.3,326.5,134.3,334.2,134.3,341.7"/>
<path class="st1" d="M113.9,341.4c0,4.9,0,9.8,0,14.6c0,4.4-3.2,7.7-7.2,7.7c-4,0.1-7.2-3.3-7.2-7.7c0-9.8,0-19.7,0-29.5
	c0-4.4,2.9-7.4,7-7.5c4.2-0.1,7.4,3.1,7.4,7.4C114,331.4,113.9,336.4,113.9,341.4"/>
<path class="st1" d="M553.5,351.2h-10.1v-56.8c3,0,6-0.1,9,0.1c0.4,0,1,1.4,1,2.2c0.1,7.1,0,14.2,0,21.2v29.6V351.2z"/>
<path class="st1" d="M451.2,351.4c-2.9,0-5.4,0-7.8,0c-0.5,0-1-0.1-1.7-0.1v-40.4h9.4v6.4c1.2-1.6,1.9-2.8,2.8-3.8
	c2.5-3,5.9-4,9.7-3.2c0.7,0.1,1.7,1,1.8,1.6c0.2,2.5,0.1,5,0.1,7.7c-1.4-0.3-2.5-0.7-3.6-0.8c-6-0.6-10.4,4.1-10.5,11.2
	c-0.1,6.1,0,12.2,0,18.4V351.4z"/>
<path class="st1" d="M93.5,341.6v7.9c0,4.2-2.8,7.2-6.8,7.5c-3.6,0.2-7.4-2.9-7.5-6.9c-0.2-5.8-0.2-11.5,0-17.3
	c0.1-3.9,3.9-7,7.6-6.8c4,0.2,6.7,3.3,6.8,7.5V341.6z"/>
<path class="st0" d="M504.4,325.7c4.1,0.3,7.8,0.3,11.4,0.9c4.7,0.7,7,3.6,7,8c0,4.3-2.7,7.7-7.1,8.4c-3.2,0.4-6.4,0.4-9.6,0.3
	c-0.5,0-1.5-1-1.5-1.5C504.4,336.7,504.4,331.5,504.4,325.7"/>
<path class="st0" d="M504.4,310.2c0-0.3,0-0.5,0-0.8c0.3-2.3-0.2-5.8,1.1-6.6c2.9-2,11.4,0,13.3,2.3c3.4,3.9,1,11-4.4,12.3
	c-2.7,0.6-5.7,0.5-8.6,0.5c-0.5,0-1.3-1-1.4-1.6C504.3,314.2,504.4,312.2,504.4,310.2"/>
<path class="st0" d="M256,323c0-6.7,0-12.7,0.1-18.7c0-0.5,0.9-1.4,1.3-1.4c3.2,0,6.5-0.2,9.6,0.4c4.6,0.9,6.7,4,6.7,8.9
	c0,5.1-2.3,8.9-6.8,9.8C263.5,322.7,259.9,322.7,256,323"/>
<path class="st0" d="M319.4,331.3c-0.6,2.6-0.9,5.3-2,7.7c-1.6,3.8-5.1,5.5-9,5.6c-4.1,0-7.7-1.5-9.6-5.3c-2.9-5.6-2.9-11.5,0.3-17
	c2.4-4.2,7.1-5.8,12.1-4.6c3.9,0.9,7.1,4.8,7.6,9.3c0.2,1.4,0.2,2.8,0.3,4.2C319.1,331.3,319.3,331.3,319.4,331.3"/>
<path class="st0" d="M423.5,326.8h-17.4c0-5.4,4.7-10.2,9.7-9.9C420.9,317.2,424,321.1,423.5,326.8"/>
</svg>
